<?xml version="1.0" encoding="UTF-8" standalone="no"?>
<svg width="436px" height="436px" viewBox="0 0 436 436" version="1.1" xmlns="http://www.w3.org/2000/svg" xmlns:xlink="http://www.w3.org/1999/xlink">
    <!-- Generator: Sketch 42 (36781) - http://www.bohemiancoding.com/sketch -->
    <title>diagrii-contact</title>
    <desc>Created with Sketch.</desc>
    <defs>
        <rect id="path-1" x="84" y="91" width="269" height="229"></rect>
        <mask id="mask-2" maskContentUnits="userSpaceOnUse" maskUnits="objectBoundingBox" x="0" y="0" width="269" height="229" fill="white">
            <use xlink:href="#path-1"></use>
        </mask>
        <polygon id="path-3" points="47 177 218 315 389 177 389 384 47 384"></polygon>
        <mask id="mask-4" maskContentUnits="userSpaceOnUse" maskUnits="objectBoundingBox" x="0" y="0" width="342" height="207" fill="white">
            <use xlink:href="#path-3"></use>
        </mask>
    </defs>
    <g id="Page-1" stroke="none" stroke-width="1" fill="none" fill-rule="evenodd">
        <g id="diagrii-contact">
            <polygon id="Path-18" fill="#2A6A4D" points="48 173 221 59 390 170 223 314"></polygon>
            <use id="Rectangle-2" stroke="#979797" mask="url(#mask-2)" stroke-width="2" fill="#FFFFFF" xlink:href="#path-1"></use>
            <polygon id="Path-19" fill="#EBEBEB" points="88 187 218 296 351 187 351 237 212 342 84 232"></polygon>
            <use id="Rectangle" stroke="#979797" mask="url(#mask-4)" stroke-width="2" fill="#58A787" xlink:href="#path-3"></use>
            <path d="M147.761267,263.1466 L219.335267,322.580933 L219.172,322.723133 L147.761267,263.1466 Z M219.251,308.5084 L154.6132,254.856867 L219.1088,308.6506 L219.251,308.5084 Z M395.5,168.262333 L395.5,385.243733 L40,385.243733 L40,168.241267 L77.999,143.329933 L77.999,83.8534667 L168.7226,83.8534667 L218.861267,51 L268.3574,83.8534667 L357.458867,83.8534667 L357.458867,142.998133 L395.5,168.262333 Z M357.479933,191.735867 L381.179933,171.6804 L357.479933,155.938333 L357.479933,191.735867 Z M188.3936,83.8534667 L248.897067,83.8534667 L218.8402,63.8980667 L188.3936,83.8534667 Z M88.7798667,199.9466 L154.6132,254.856867 L219.1088,308.6506 L219.251,308.529467 L346.699067,199.988733 L346.699067,94.6343333 L88.7798667,94.6343333 L88.7798667,199.9466 Z M54.4201333,171.659333 L77.999,191.2408 L77.999,156.206933 L54.4201333,171.659333 Z M384.719133,182.766733 L219.4564,322.702067 L219.3142,322.580933 L147.761267,263.1466 L50.7808667,182.624533 L50.7808667,374.468133 L384.7402,374.468133 L384.7402,182.766733 L384.719133,182.766733 Z M216.949467,251.417733 C189.030867,251.417733 165.373,230.988333 165.373,198.298133 C165.373,163.222133 189.710267,132.9388 227.503867,132.9388 C257.128867,132.9388 277.042133,153.7 277.042133,182.129467 C277.042133,207.662267 262.743133,222.656467 246.737733,222.656467 C239.927933,222.656467 233.634267,218.0692 234.145133,207.683333 L233.465733,207.683333 C227.503867,217.7216 219.682867,222.656467 209.460267,222.656467 C199.585267,222.656467 191.069067,214.6564 191.069067,201.200067 C191.069067,180.091267 207.753867,160.8574 231.411733,160.8574 C238.711333,160.8574 245.1946,162.379467 249.6186,164.438733 L243.8358,195.254 C241.286733,208.1942 243.319667,214.161333 248.9392,214.3246 C257.618667,214.508933 267.3304,202.927533 267.3304,183.177533 C267.3304,158.492667 252.520533,140.796667 226.124,140.796667 C198.368667,140.796667 175.063667,162.7692 175.063667,197.313267 C175.063667,225.742733 193.618133,243.2702 218.798067,243.2702 C228.5098,243.2702 237.521067,241.237267 244.494133,237.308333 L247.211733,244.629 C237.889733,249.548067 228.3676,251.417733 216.949467,251.417733 Z M237.889733,171.058933 C236.183333,170.548067 233.302467,169.868667 229.373533,169.868667 C214.395133,169.868667 202.318667,183.999133 202.318667,200.520667 C202.318667,208.009867 206.063267,213.460867 213.552467,213.460867 C223.427467,213.460867 232.438733,200.873533 234.313667,190.298067 L237.889733,171.058933 Z" id="Page-1" fill="#000000"></path>
        </g>
    </g>
</svg>