<?xml version="1.0" encoding="utf-8"?>
<!-- Generator: Adobe Illustrator 15.1.0, SVG Export Plug-In  -->
<!DOCTYPE svg PUBLIC "-//W3C//DTD SVG 1.1//EN" "http://www.w3.org/Graphics/SVG/1.1/DTD/svg11.dtd" [
	<!ENTITY ns_flows "http://ns.adobe.com/Flows/1.0/">
]>
<svg version="1.1"
	 xmlns="http://www.w3.org/2000/svg" xmlns:xlink="http://www.w3.org/1999/xlink" xmlns:a="http://ns.adobe.com/AdobeSVGViewerExtensions/3.0/"
	 x="0px" y="0px" width="656px" height="477px" viewBox="186 118.592 656 477"
	 overflow="visible" enable-background="new 186 118.592 656 477" xml:space="preserve">
<defs>
</defs>
<g>
	<defs>
		<rect id="SVGID_1_" width="841.89" height="595.28"/>
	</defs>
	<clipPath id="SVGID_2_">
		<use xlink:href="#SVGID_1_"  overflow="visible"/>
	</clipPath>
	<path clip-path="url(#SVGID_2_)" fill="#274563" d="M231.418,432.678h-12.18v-4.403c-2.201,3.962-7.264,5.797-12.034,5.797
		c-12.914,0-20.471-10.126-20.471-21.793c0-13.354,9.612-21.718,20.471-21.718c6.677,0,10.419,3.229,12.034,5.723v-4.329h12.18
		V432.678z M198.914,412.499c0,3.742,2.789,10.199,10.125,10.199c4.33,0,6.971-2.054,8.512-4.55
		c1.028-1.614,1.541-3.375,1.688-5.209c0.147-1.835-0.221-3.669-1.027-5.357c-1.321-2.787-4.11-5.648-9.246-5.648
		c-6.97,0-10.052,5.87-10.052,10.493V412.499z"/>
	<path clip-path="url(#SVGID_2_)" fill="#274563" d="M279.419,427.762c0,6.09-0.44,9.978-2.421,13.427
		c-3.156,5.136-10.566,9.613-20.619,9.613c-14.161,0-19.517-8.513-20.324-14.31h14.088c0.88,1.982,2.494,3.008,3.888,3.523
		c1.468,0.513,2.862,0.513,3.229,0.513c4.622,0,9.905-2.862,9.905-9.906v-2.421c-1.394,2.349-4.916,5.796-11.299,5.796
		c-11.08,0-20.545-8.363-20.545-21.425c0-13.94,9.979-21.938,20.545-21.938c4.549,0,9.025,1.612,11.372,5.135v-3.815h12.181V427.762
		z M247.501,412.205c0,6.457,4.696,10.42,9.759,10.42c3.008,0,5.356-1.027,7.117-2.789c1.687-1.761,2.715-4.182,2.861-7.044
		c0-3.008-0.88-5.723-2.567-7.631c-1.615-1.979-4.109-3.153-7.338-3.153c-5.209,0-9.832,4.181-9.832,10.125V412.205z"/>
	<path clip-path="url(#SVGID_2_)" fill="#274563" d="M283.322,391.954h11.446v4.549c1.175-2.2,3.302-5.943,10.346-5.943v12.254
		h-0.44c-6.237,0-9.172,2.275-9.172,7.998v21.866h-12.18V391.954z"/>
	<path clip-path="url(#SVGID_2_)" fill="#274563" d="M309.018,378.38h12.18v9.245h-12.18V378.38z M309.018,391.954h12.18v40.724
		h-12.18V391.954z"/>
	<path clip-path="url(#SVGID_2_)" fill="#2A5E3E" d="M338.912,414.7c0,6.311,3.889,7.41,5.65,7.41c3.302,0,5.283-2.714,5.283-5.209
		c0-2.862-2.274-3.742-10.64-7.263c-3.815-1.542-13.28-5.358-13.28-15.558c0-10.933,9.905-16.729,19.004-16.729
		c7.484,0,18.05,3.816,18.27,16.876h-13.721c-0.294-1.834-0.733-5.283-4.989-5.283c-2.422,0-4.77,1.689-4.77,4.256
		c0,2.495,1.468,3.155,11.226,7.559c10.126,4.549,12.695,9.245,12.695,15.555c0,8.658-4.55,17.39-18.931,17.39
		c-14.235,0-19.958-8.364-19.591-19.004H338.912z"/>
	<path clip-path="url(#SVGID_2_)" fill="#2A5E3E" d="M367.542,391.954h11.374v4.329c0,0,0.733-1.468,2.494-2.862
		c1.761-1.467,4.623-2.861,8.878-2.861c2.789,0,6.311,0.734,9.318,3.89c0.881,0.88,1.688,1.981,2.422,3.375
		c0.807-1.248,1.761-2.495,2.935-3.521c2.422-2.202,5.724-3.743,9.979-3.743c2.862,0,7.411,0.662,10.712,4.109
		c3.815,4.035,4.403,6.751,4.403,15.775v22.233h-12.181v-21.646c0-1.687,0-3.889-0.807-5.723c-0.734-1.908-2.275-3.301-5.43-3.301
		c-3.375,0-5.063,1.54-5.87,3.375c-0.88,1.834-0.88,3.888-0.88,5.062v22.233h-12.181v-22.16c0-1.101,0-3.229-0.733-5.062
		c-0.807-1.907-2.275-3.447-5.356-3.447c-3.449,0-5.137,1.612-6.017,3.594c-0.881,1.98-0.881,4.183-0.881,5.43v21.646h-12.18
		V391.954z"/>
	<path clip-path="url(#SVGID_2_)" fill="#2A5E3E" d="M478.646,432.678h-12.181v-4.403c-2.201,3.962-7.264,5.797-12.032,5.797
		c-12.914,0-20.473-10.126-20.473-21.793c0-13.354,9.612-21.718,20.473-21.718c6.676,0,10.418,3.229,12.032,5.723v-4.329h12.181
		V432.678z M446.141,412.499c0,3.742,2.788,10.199,10.125,10.199c4.329,0,6.972-2.054,8.513-4.55
		c1.026-1.614,1.54-3.375,1.687-5.209c0.146-1.835-0.221-3.669-1.027-5.357c-1.32-2.787-4.109-5.648-9.244-5.648
		c-6.972,0-10.053,5.87-10.053,10.493V412.499z"/>
	<path clip-path="url(#SVGID_2_)" fill="#2A5E3E" d="M482.549,391.954h11.445v4.549c1.174-2.2,3.302-5.943,10.346-5.943v12.254
		H503.9c-6.236,0-9.172,2.275-9.172,7.998v21.866h-12.18V391.954z"/>
	<polygon clip-path="url(#SVGID_2_)" fill="#2A5E3E" points="514.26,401.199 508.243,401.199 508.243,391.954 514.26,391.954 
		514.26,378.381 526.439,378.381 526.439,391.954 532.31,391.954 532.31,401.199 526.439,401.199 526.439,432.678 514.26,432.678 	
		"/>
	<polygon clip-path="url(#SVGID_2_)" fill="#274563" points="544.895,390.56 534.182,390.56 534.182,378.38 569.401,378.38 
		569.401,390.56 558.763,390.56 558.763,432.677 544.895,432.677 	"/>
	<path clip-path="url(#SVGID_2_)" fill="#274563" d="M607.155,432.678h-12.181v-4.403c-2.201,3.962-7.264,5.797-12.032,5.797
		c-12.914,0-20.473-10.126-20.473-21.793c0-13.354,9.612-21.718,20.473-21.718c6.677,0,10.418,3.229,12.032,5.723v-4.329h12.181
		V432.678z M574.65,412.499c0,3.742,2.788,10.199,10.125,10.199c4.33,0,6.972-2.054,8.513-4.55c1.027-1.614,1.54-3.375,1.687-5.209
		c0.146-1.835-0.221-3.669-1.027-5.357c-1.32-2.787-4.109-5.648-9.244-5.648c-6.972,0-10.053,5.87-10.053,10.493V412.499z"/>
	<path clip-path="url(#SVGID_2_)" fill="#274563" d="M655.157,427.762c0,6.09-0.44,9.978-2.422,13.427
		c-3.155,5.136-10.566,9.613-20.618,9.613c-14.161,0-19.518-8.513-20.324-14.31h14.088c0.88,1.982,2.494,3.008,3.889,3.523
		c1.467,0.513,2.861,0.513,3.228,0.513c4.624,0,9.905-2.862,9.905-9.906v-2.421c-1.392,2.349-4.915,5.796-11.299,5.796
		c-11.079,0-20.545-8.363-20.545-21.425c0-13.94,9.979-21.938,20.545-21.938c4.549,0,9.024,1.612,11.373,5.135v-3.815h12.181
		V427.762z M623.239,412.205c0,6.457,4.695,10.42,9.758,10.42c3.009,0,5.357-1.027,7.118-2.789c1.688-1.761,2.715-4.182,2.861-7.044
		c0-3.008-0.88-5.723-2.568-7.631c-1.613-1.979-4.109-3.153-7.337-3.153c-5.21,0-9.832,4.181-9.832,10.125V412.205z"/>
	<polygon clip-path="url(#SVGID_2_)" fill="#274563" points="532.009,455.063 540.639,455.063 540.639,457.388 534.646,457.388 
		534.646,462.218 540.549,462.218 540.549,464.521 534.646,464.521 534.646,471.606 532.009,471.606 	"/>
	<path clip-path="url(#SVGID_2_)" fill="#274563" d="M542.964,459.445h2.19v1.789c0.693-1.431,1.968-2.125,3.621-2.146v2.324h-0.155
		c-2.191,0-3.331,1.207-3.331,3.621v6.573h-2.325V459.445z"/>
	<path clip-path="url(#SVGID_2_)" fill="#274563" d="M549.045,465.504c0-3.242,2.391-6.417,6.483-6.417
		c4.091,0,6.483,3.175,6.483,6.44c0,3.263-2.393,6.416-6.483,6.416c-4.093,0-6.483-3.153-6.483-6.416V465.504z M551.369,465.548
		c0,2.415,1.834,4.227,4.159,4.227s4.157-1.812,4.157-4.247c0-2.438-1.832-4.249-4.157-4.249s-4.159,1.812-4.159,4.249V465.548z"/>
	<path clip-path="url(#SVGID_2_)" fill="#274563" d="M564.382,459.445h2.189v1.723c0.515-1.03,1.924-2.08,3.689-2.08
		c1.118,0,2.28,0.335,3.13,1.296c0.313,0.312,0.648,0.961,0.783,1.185c0.201-0.356,0.447-0.781,0.871-1.207
		c0.783-0.78,1.899-1.273,3.22-1.273c1.118,0,2.37,0.312,3.264,1.229c1.073,1.096,1.342,2.259,1.342,4.584v6.706h-2.325v-6.617
		c0-1.005-0.134-2.012-0.671-2.705c-0.425-0.626-1.072-1.006-2.169-1.006c-1.027,0-1.899,0.425-2.347,1.163
		c-0.493,0.76-0.56,1.432-0.56,2.459v6.706h-2.347V464.9c0.022-1.007-0.091-1.743-0.492-2.415c-0.446-0.715-1.162-1.186-2.304-1.207
		c-1.094-0.021-1.899,0.515-2.302,1.186c-0.448,0.647-0.648,1.498-0.648,2.48v6.662h-2.324V459.445z"/>
	<path clip-path="url(#SVGID_2_)" fill="#274563" d="M604.757,471.606h-2.235v-2.123c-0.67,1.252-2.034,2.48-4.538,2.48
		c-3.823,0-6.237-2.95-6.237-6.459c0-3.779,2.728-6.417,6.192-6.417c2.481,0,4.002,1.385,4.494,2.347v-2.145v-4.227h2.324V471.606z
		 M594.07,465.526c0.023,2.235,1.588,4.271,4.271,4.271c1.184,0,2.279-0.492,3.04-1.275c0.782-0.782,1.229-1.854,1.185-3.062
		c0-1.207-0.47-2.258-1.229-2.996c-0.76-0.76-1.812-1.208-2.995-1.208c-2.571,0-4.271,1.967-4.271,4.249V465.526z"/>
	<path clip-path="url(#SVGID_2_)" fill="#274563" d="M607.843,455.063h2.325v2.459h-2.325V455.063z M607.843,459.445h2.325v12.161
		h-2.325V459.445z"/>
	<path clip-path="url(#SVGID_2_)" fill="#274563" d="M614.729,471.606h-2.861l6.795-16.543h2.394l6.683,16.543h-2.86l-1.564-3.912
		h-7.065L614.729,471.606z M619.758,458.126l-2.794,7.445h5.634L619.758,458.126z"/>
	<path clip-path="url(#SVGID_2_)" fill="#274563" d="M641.735,470.199c0,2.123-0.536,3.486-1.431,4.516
		c-1.118,1.296-3.018,2.213-5.119,2.213c-3.442,0-5.455-2.011-6.036-4.046h2.683c0.269,0.537,0.737,1.028,1.342,1.408
		c0.737,0.491,1.564,0.647,2.101,0.647c2.034,0,4.136-1.497,4.136-4.225v-1.251c-0.715,1.362-2.19,2.502-4.381,2.502
		c-3.645,0-6.282-2.771-6.282-6.393c0-3.801,2.749-6.483,6.282-6.483c2.034,0,3.71,1.073,4.381,2.415v-2.058h2.325V470.199z
		 M631.072,465.526c0,2.28,1.632,4.271,4.202,4.271c1.229,0,2.258-0.47,2.996-1.23c0.716-0.736,1.163-1.788,1.185-2.974
		c0-0.961-0.312-2.055-0.983-2.883c-0.671-0.851-1.721-1.432-3.197-1.432c-2.303,0-4.202,1.722-4.202,4.227V465.526z"/>
	<path clip-path="url(#SVGID_2_)" fill="#274563" d="M644.754,459.445h2.191v1.789c0.693-1.431,1.968-2.125,3.621-2.146v2.324
		h-0.155c-2.192,0-3.332,1.207-3.332,3.621v6.573h-2.325V459.445z"/>
	<path clip-path="url(#SVGID_2_)" fill="#274563" d="M652.399,455.063h2.324v2.459h-2.324V455.063z M652.399,459.445h2.324v12.161
		h-2.324V459.445z"/>
	<path clip-path="url(#SVGID_2_)" fill="#274563" d="M446.349,170.723c3.091-3.091,3.091-8.097,0-11.188
		c-16.238-16.238-42.661-16.238-58.899,0c-3.091,3.091-3.091,8.097,0,11.188c3.091,3.091,8.094,3.091,11.186,0
		c10.067-10.068,26.451-10.068,36.525,0c1.537,1.545,3.565,2.317,5.596,2.317C442.774,173.04,444.803,172.268,446.349,170.723"/>
	<path clip-path="url(#SVGID_2_)" fill="#274563" d="M377.983,150.32c10.404-10.404,24.229-16.145,38.911-16.145
		c14.695,0,28.517,5.741,38.922,16.145c3.093,3.091,8.105,3.091,11.188,0c3.091-3.091,3.091-8.107,0-11.198
		c-13.39-13.399-31.184-20.769-50.11-20.769c-18.914,0-36.71,7.38-50.107,20.769c-3.091,3.091-3.091,8.107,0,11.198
		c1.543,1.545,3.574,2.317,5.592,2.317C374.409,152.637,376.437,151.856,377.983,150.32"/>
	<path clip-path="url(#SVGID_2_)" fill="#2A5E3E" d="M476.091,280.97h-38.038h-8.104c-7.172,0-13.041,5.868-13.041,13.041v21.177
		v17.914v13.268h57.944c7.172,0,13.04-5.867,13.04-13.041V280.97H476.091z"/>
	<path clip-path="url(#SVGID_2_)" fill="#274563" d="M416.895,181.715c5.328,0,9.663,4.33,9.663,9.652
		c0,5.328-4.335,9.662-9.663,9.662c-5.322,0-9.652-4.334-9.652-9.662C407.243,186.045,411.573,181.715,416.895,181.715"/>
	<path clip-path="url(#SVGID_2_)" fill="#F2880D" d="M477.36,242.912c-10.035-6.773-24.486-14.436-30.666-32.689
		c-10.026-29.608-10.837-40.973-29.362-40.973h-0.85c-18.524,0-19.335,11.365-29.361,40.973
		c-6.182,18.253-20.631,25.916-30.666,32.689c-5.237,2.322-10.532,6.48-10.532,12.795v77.623c0,7.173,5.868,13.041,13.041,13.041
		h52.87v-13.269v-17.914V294.01c0-9.987,8.126-18.113,18.114-18.113h8.104h38.038h11.801v-20.19
		C487.892,249.392,482.776,245.37,477.36,242.912 M416.895,206.046c-8.103,0-14.668-6.575-14.668-14.68
		c0-8.102,6.565-14.668,14.668-14.668c8.104,0,14.68,6.566,14.68,14.668C431.574,199.471,424.999,206.046,416.895,206.046"/>
	<rect x="425.408" y="331.414" clip-path="url(#SVGID_2_)" fill="#F2880D" width="4.312" height="14.955"/>
	<rect x="434.898" y="331.414" clip-path="url(#SVGID_2_)" fill="#F2880D" width="4.313" height="14.955"/>
	<rect x="434.898" y="331.414" clip-path="url(#SVGID_2_)" fill="#F2880D" width="4.313" height="14.955"/>
	<rect x="444.389" y="331.414" clip-path="url(#SVGID_2_)" fill="#F2880D" width="4.313" height="14.955"/>
	<rect x="453.879" y="331.414" clip-path="url(#SVGID_2_)" fill="#F2880D" width="4.313" height="14.955"/>
	<rect x="463.37" y="331.414" clip-path="url(#SVGID_2_)" fill="#F2880D" width="4.313" height="14.955"/>
	<rect x="472.861" y="331.414" clip-path="url(#SVGID_2_)" fill="#F2880D" width="4.312" height="14.955"/>
</g>
<rect x="186" y="118.592" fill="none" width="661" height="476.688"/>
<rect x="186" y="118.592" fill="none" width="655.89" height="476.688"/>
</svg>
