<?xml version="1.0" encoding="UTF-8" standalone="no"?>
<svg width="469px" height="359px" viewBox="0 0 469 359" version="1.1" xmlns="http://www.w3.org/2000/svg" xmlns:xlink="http://www.w3.org/1999/xlink">
    <!-- Generator: Sketch 42 (36781) - http://www.bohemiancoding.com/sketch -->
    <title>Artboard</title>
    <desc>Created with Sketch.</desc>
    <defs>
        <polygon id="path-1" points="0.134 21.94 30.002 21.94 30.002 0.136 0.134 0.136"></polygon>
    </defs>
    <g id="Page-1" stroke="none" stroke-width="1" fill="none" fill-rule="evenodd">
        <g id="Artboard">
            <g id="agriSmartTag-Square-Logo-Coloured">
                <path d="M12.18,294.571 C12.18,298.313 14.969,304.771 22.306,304.771 C26.635,304.771 29.277,302.716 30.818,300.221 C31.845,298.606 32.359,296.846 32.505,295.012 C32.652,293.177 32.285,291.343 31.478,289.654 C30.157,286.867 27.369,284.005 22.233,284.005 C15.262,284.005 12.18,289.875 12.18,294.498 L12.18,294.571 Z M44.685,314.749 L32.505,314.749 L32.505,310.347 C30.304,314.309 25.241,316.144 20.471,316.144 C7.558,316.144 0,306.018 0,294.351 C0,280.997 9.612,272.632 20.471,272.632 C27.149,272.632 30.891,275.861 32.505,278.355 L32.505,274.026 L44.685,274.026 L44.685,314.749 L44.685,314.749 Z" id="Fill-1" fill="#375066"></path>
                <path d="M60.768,294.277 C60.768,300.734 65.464,304.697 70.527,304.697 C73.535,304.697 75.883,303.669 77.644,301.908 C79.332,300.147 80.359,297.727 80.506,294.864 C80.506,291.856 79.625,289.142 77.938,287.233 C76.323,285.253 73.829,284.079 70.6,284.079 C65.391,284.079 60.768,288.261 60.768,294.204 L60.768,294.277 Z M92.686,309.833 C92.686,315.923 92.246,319.812 90.265,323.261 C87.11,328.396 79.699,332.873 69.646,332.873 C55.485,332.873 50.129,324.361 49.322,318.564 L63.41,318.564 C64.29,320.546 65.904,321.572 67.299,322.087 C68.766,322.601 70.16,322.601 70.527,322.601 C75.15,322.601 80.432,319.738 80.432,312.694 L80.432,310.273 C79.038,312.621 75.516,316.069 69.133,316.069 C58.053,316.069 48.589,307.705 48.589,294.645 C48.589,280.703 58.567,272.706 69.133,272.706 C73.682,272.706 78.158,274.319 80.506,277.842 L80.506,274.026 L92.686,274.026 L92.686,309.833 L92.686,309.833 Z" id="Fill-2" fill="#375066"></path>
                <path d="M96.589,274.026 L108.035,274.026 L108.035,278.575 C109.21,276.374 111.337,272.632 118.381,272.632 L118.381,284.886 L117.941,284.886 C111.704,284.886 108.769,287.16 108.769,292.884 L108.769,314.749 L96.589,314.749 L96.589,274.026" id="Fill-3" fill="#375066"></path>
                <path d="M122.284,314.749 L134.465,314.749 L134.465,274.026 L122.284,274.026 L122.284,314.749 Z M122.284,269.697 L134.465,269.697 L134.465,260.452 L122.284,260.452 L122.284,269.697 Z" id="Fill-4" fill="#375066"></path>
                <path d="M152.178,296.772 C152.178,303.082 156.067,304.183 157.828,304.183 C161.131,304.183 163.111,301.469 163.111,298.974 C163.111,296.111 160.837,295.231 152.472,291.71 C148.656,290.168 139.191,286.353 139.191,276.153 C139.191,265.221 149.097,259.425 158.196,259.425 C165.679,259.425 176.245,263.24 176.466,276.301 L162.744,276.301 C162.451,274.467 162.011,271.018 157.755,271.018 C155.334,271.018 152.986,272.706 152.986,275.273 C152.986,277.769 154.453,278.429 164.212,282.831 C174.338,287.381 176.906,292.076 176.906,298.387 C176.906,307.045 172.357,315.776 157.975,315.776 C143.74,315.776 138.017,307.411 138.384,296.772 L152.178,296.772" id="Fill-5" fill="#2D694E"></path>
                <path d="M180.809,274.026 L192.182,274.026 L192.182,278.355 C192.182,278.355 192.916,276.888 194.676,275.493 C196.438,274.026 199.3,272.632 203.555,272.632 C206.343,272.632 209.865,273.366 212.873,276.521 C213.754,277.401 214.561,278.502 215.295,279.896 C216.102,278.648 217.056,277.401 218.23,276.374 C220.652,274.173 223.953,272.632 228.209,272.632 C231.071,272.632 235.619,273.293 238.921,276.741 C242.737,280.776 243.324,283.492 243.324,292.517 L243.324,314.749 L231.144,314.749 L231.144,293.104 C231.144,291.416 231.144,289.215 230.337,287.381 C229.603,285.473 228.062,284.079 224.907,284.079 C221.532,284.079 219.844,285.619 219.037,287.454 C218.156,289.288 218.156,291.343 218.156,292.517 L218.156,314.749 L205.976,314.749 L205.976,292.59 C205.976,291.489 205.976,289.361 205.242,287.527 C204.436,285.619 202.968,284.079 199.886,284.079 C196.438,284.079 194.75,285.692 193.87,287.674 C192.989,289.654 192.989,291.856 192.989,293.104 L192.989,314.749 L180.809,314.749 L180.809,274.026" id="Fill-6" fill="#2D694E"></path>
                <path d="M259.407,294.571 C259.407,298.313 262.196,304.771 269.532,304.771 C273.862,304.771 276.504,302.716 278.045,300.221 C279.072,298.606 279.585,296.846 279.732,295.012 C279.878,293.177 279.512,291.343 278.704,289.654 C277.384,286.867 274.595,284.005 269.46,284.005 C262.488,284.005 259.407,289.875 259.407,294.498 L259.407,294.571 Z M291.912,314.749 L279.732,314.749 L279.732,310.347 C277.53,314.309 272.468,316.144 267.699,316.144 C254.785,316.144 247.227,306.018 247.227,294.351 C247.227,280.997 256.839,272.632 267.699,272.632 C274.375,272.632 278.117,275.861 279.732,278.355 L279.732,274.026 L291.912,274.026 L291.912,314.749 L291.912,314.749 Z" id="Fill-7" fill="#2D694E"></path>
                <path d="M295.816,274.026 L307.261,274.026 L307.261,278.575 C308.435,276.374 310.563,272.632 317.607,272.632 L317.607,284.886 L317.167,284.886 C310.931,284.886 307.995,287.16 307.995,292.884 L307.995,314.749 L295.816,314.749 L295.816,274.026" id="Fill-8" fill="#2D694E"></path>
                <polyline id="Fill-9" fill="#2D694E" points="327.527 283.271 321.51 283.271 321.51 274.026 327.527 274.026 327.527 260.452 339.706 260.452 339.706 274.026 345.576 274.026 345.576 283.271 339.706 283.271 339.706 314.749 327.527 314.749 327.527 283.271"></polyline>
                <polyline id="Fill-10" fill="#375066" points="358.161 272.632 347.448 272.632 347.448 260.452 382.668 260.452 382.668 272.632 372.03 272.632 372.03 314.749 358.161 314.749 358.161 272.632"></polyline>
                <path d="M387.917,294.571 C387.917,298.313 390.705,304.771 398.042,304.771 C402.372,304.771 405.014,302.716 406.555,300.221 C407.582,298.606 408.095,296.846 408.241,295.012 C408.388,293.177 408.022,291.343 407.214,289.654 C405.894,286.867 403.106,284.005 397.97,284.005 C390.998,284.005 387.917,289.875 387.917,294.498 L387.917,294.571 Z M420.422,314.749 L408.241,314.749 L408.241,310.347 C406.04,314.309 400.978,316.144 396.209,316.144 C383.295,316.144 375.737,306.018 375.737,294.351 C375.737,280.997 385.349,272.632 396.209,272.632 C402.886,272.632 406.627,275.861 408.241,278.355 L408.241,274.026 L420.422,274.026 L420.422,314.749 L420.422,314.749 Z" id="Fill-11" fill="#375066"></path>
                <path d="M436.506,294.277 C436.506,300.734 441.201,304.697 446.264,304.697 C449.273,304.697 451.621,303.669 453.382,301.908 C455.07,300.147 456.097,297.727 456.243,294.864 C456.243,291.856 455.363,289.142 453.675,287.233 C452.062,285.253 449.566,284.079 446.338,284.079 C441.128,284.079 436.506,288.261 436.506,294.204 L436.506,294.277 Z M468.424,309.833 C468.424,315.923 467.983,319.812 466.002,323.261 C462.847,328.396 455.436,332.873 445.384,332.873 C431.223,332.873 425.866,324.361 425.06,318.564 L439.148,318.564 C440.028,320.546 441.642,321.572 443.036,322.087 C444.503,322.601 445.898,322.601 446.264,322.601 C450.888,322.601 456.169,319.738 456.169,312.694 L456.169,310.273 C454.777,312.621 451.254,316.069 444.87,316.069 C433.791,316.069 424.325,307.705 424.325,294.645 C424.325,280.703 434.304,272.706 444.87,272.706 C449.419,272.706 453.895,274.319 456.243,277.842 L456.243,274.026 L468.424,274.026 L468.424,309.833 L468.424,309.833 Z" id="Fill-12" fill="#375066"></path>
                <polyline id="Fill-13" fill="#375066" points="340.276 337.136 348.905 337.136 348.905 339.46 342.913 339.46 342.913 344.29 348.816 344.29 348.816 346.593 342.913 346.593 342.913 353.679 340.276 353.679 340.276 337.136"></polyline>
                <path d="M351.231,341.518 L353.421,341.518 L353.421,343.307 C354.114,341.876 355.389,341.182 357.043,341.159 L357.043,343.484 L356.887,343.484 C354.696,343.484 353.556,344.691 353.556,347.105 L353.556,353.679 L351.231,353.679 L351.231,341.518" id="Fill-14" fill="#375066"></path>
                <path d="M359.636,347.62 C359.636,350.035 361.47,351.846 363.795,351.846 C366.12,351.846 367.953,350.035 367.953,347.599 C367.953,345.162 366.12,343.351 363.795,343.351 C361.47,343.351 359.636,345.162 359.636,347.599 L359.636,347.62 Z M357.312,347.576 C357.312,344.334 359.703,341.159 363.795,341.159 C367.886,341.159 370.279,344.334 370.279,347.599 C370.279,350.862 367.886,354.015 363.795,354.015 C359.703,354.015 357.312,350.862 357.312,347.599 L357.312,347.576 L357.312,347.576 Z" id="Fill-15" fill="#375066"></path>
                <path d="M372.649,341.518 L374.839,341.518 L374.839,343.239 C375.353,342.21 376.762,341.159 378.528,341.159 C379.646,341.159 380.808,341.494 381.657,342.456 C381.971,342.769 382.306,343.417 382.441,343.641 C382.642,343.283 382.888,342.859 383.312,342.434 C384.095,341.652 385.212,341.159 386.531,341.159 C387.65,341.159 388.902,341.473 389.796,342.389 C390.868,343.484 391.137,344.647 391.137,346.973 L391.137,353.679 L388.812,353.679 L388.812,347.062 C388.812,346.057 388.678,345.05 388.141,344.356 C387.716,343.73 387.069,343.351 385.972,343.351 C384.945,343.351 384.072,343.775 383.625,344.514 C383.133,345.273 383.066,345.944 383.066,346.973 L383.066,353.679 L380.719,353.679 L380.719,346.973 C380.741,345.966 380.629,345.23 380.227,344.558 C379.78,343.843 379.065,343.372 377.924,343.351 C376.829,343.328 376.024,343.864 375.621,344.535 C375.174,345.184 374.973,346.033 374.973,347.017 L374.973,353.679 L372.649,353.679 L372.649,341.518" id="Fill-16" fill="#375066"></path>
                <path d="M402.337,347.599 C402.361,349.834 403.925,351.868 406.608,351.868 C407.792,351.868 408.888,351.377 409.649,350.594 C410.431,349.812 410.878,348.738 410.833,347.531 C410.833,346.324 410.363,345.273 409.604,344.535 C408.844,343.775 407.792,343.328 406.608,343.328 C404.037,343.328 402.337,345.295 402.337,347.576 L402.337,347.599 Z M413.024,353.679 L410.788,353.679 L410.788,351.556 C410.118,352.808 408.754,354.036 406.25,354.036 C402.427,354.036 400.013,351.086 400.013,347.576 C400.013,343.798 402.74,341.159 406.205,341.159 C408.687,341.159 410.207,342.545 410.699,343.507 L410.699,337.136 L413.024,337.136 L413.024,353.679 L413.024,353.679 Z" id="Fill-17" fill="#375066"></path>
                <path d="M416.11,353.679 L418.435,353.679 L418.435,341.518 L416.11,341.518 L416.11,353.679 Z M416.11,339.595 L418.435,339.595 L418.435,337.136 L416.11,337.136 L416.11,339.595 Z" id="Fill-18" fill="#375066"></path>
                <g id="Group-22" transform="translate(420.000000, 337.000000)">
                    <mask id="mask-2" fill="white">
                        <use xlink:href="#path-1"></use>
                    </mask>
                    <g id="Clip-20"></g>
                    <path d="M8.025,3.198 L5.231,10.644 L10.864,10.644 L8.025,3.198 Z M2.995,16.679 L0.134,16.679 L6.929,0.136 L9.322,0.136 L16.006,16.679 L13.145,16.679 L11.58,12.767 L4.515,12.767 L2.995,16.679 L2.995,16.679 Z" id="Fill-19" fill="#375066" mask="url(#mask-2)"></path>
                    <path d="M19.339,10.599 C19.339,12.879 20.971,14.868 23.541,14.868 C24.771,14.868 25.799,14.398 26.537,13.639 C27.253,12.901 27.7,11.851 27.722,10.665 C27.722,9.704 27.409,8.609 26.738,7.781 C26.068,6.932 25.018,6.351 23.541,6.351 C21.238,6.351 19.339,8.071 19.339,10.576 L19.339,10.599 Z M30.002,15.271 C30.002,17.395 29.466,18.758 28.572,19.787 C27.453,21.083 25.554,22 23.452,22 C20.01,22 17.997,19.988 17.416,17.954 L20.099,17.954 C20.367,18.49 20.836,18.981 21.441,19.361 C22.178,19.854 23.005,20.01 23.541,20.01 C25.575,20.01 27.677,18.513 27.677,15.784 L27.677,14.533 C26.962,15.896 25.487,17.036 23.296,17.036 C19.652,17.036 17.014,14.265 17.014,10.644 C17.014,6.843 19.763,4.159 23.296,4.159 C25.33,4.159 27.006,5.232 27.677,6.574 L27.677,4.518 L30.002,4.518 L30.002,15.271 L30.002,15.271 Z" id="Fill-21" fill="#375066" mask="url(#mask-2)"></path>
                </g>
                <path d="M453.021,341.518 L455.212,341.518 L455.212,343.307 C455.905,341.876 457.18,341.182 458.834,341.159 L458.834,343.484 L458.678,343.484 C456.486,343.484 455.346,344.691 455.346,347.105 L455.346,353.679 L453.021,353.679 L453.021,341.518" id="Fill-23" fill="#375066"></path>
                <path d="M460.666,353.679 L462.991,353.679 L462.991,341.518 L460.666,341.518 L460.666,353.679 Z M460.666,339.595 L462.991,339.595 L462.991,337.136 L460.666,337.136 L460.666,339.595 Z" id="Fill-24" fill="#375066"></path>
                <path d="M466.031,353.679 L468.357,353.679 L468.357,341.518 L466.031,341.518 L466.031,353.679 Z M466.031,339.595 L468.357,339.595 L468.357,337.136 L466.031,337.136 L466.031,339.595 Z" id="Fill-25" fill="#375066"></path>
                <g id="Group-29" transform="translate(177.000000, 0.000000)" fill="#375066">
                    <path d="M82.615,52.795 C85.706,49.704 85.706,44.698 82.615,41.607 C66.377,25.369 39.955,25.369 23.717,41.607 C20.625,44.698 20.625,49.704 23.717,52.795 C26.808,55.886 31.811,55.886 34.902,52.795 C44.97,42.727 61.354,42.727 71.429,52.795 C72.965,54.34 74.993,55.112 77.024,55.112 C79.041,55.112 81.07,54.34 82.615,52.795" id="Fill-26"></path>
                    <path d="M14.25,32.392 C24.654,21.988 38.478,16.248 53.161,16.248 C67.856,16.248 81.678,21.988 92.084,32.392 C95.176,35.483 100.189,35.483 103.271,32.392 C106.362,29.301 106.362,24.285 103.271,21.194 C89.881,7.795 72.087,0.425 53.161,0.425 C34.247,0.425 16.45,7.805 3.054,21.194 C-0.037,24.285 -0.037,29.301 3.054,32.392 C4.597,33.938 6.628,34.709 8.646,34.709 C10.676,34.709 12.704,33.928 14.25,32.392" id="Fill-28"></path>
                </g>
                <path d="M289.358,163.042 L243.215,163.042 C236.043,163.042 230.175,168.91 230.175,176.082 L230.175,228.441 L288.118,228.441 C295.29,228.441 301.158,222.573 301.158,215.4 L301.158,163.042 L289.358,163.042" id="Fill-30" fill="#2D694E"></path>
                <path d="M230.162,63.787 C235.489,63.787 239.824,68.116 239.824,73.438 C239.824,78.767 235.489,83.101 230.162,83.101 C224.84,83.101 220.509,78.767 220.509,73.438 C220.509,68.116 224.84,63.787 230.162,63.787" id="Fill-31" fill="#375066"></path>
                <path d="M230.161,88.118 C222.059,88.118 215.493,81.543 215.493,73.438 C215.493,65.336 222.059,58.77 230.161,58.77 C238.267,58.77 244.841,65.336 244.841,73.438 C244.841,81.543 238.267,88.118 230.161,88.118 Z M290.627,124.984 C280.592,118.21 266.142,110.547 259.961,92.295 C249.935,62.686 249.124,51.321 230.599,51.321 L229.75,51.321 C211.225,51.321 210.414,62.686 200.388,92.295 C194.207,110.547 179.757,118.21 169.722,124.984 C164.486,127.306 159.19,131.464 159.19,137.778 L159.19,215.4 C159.19,222.573 165.059,228.441 172.231,228.441 L225.102,228.441 L225.102,176.082 C225.102,166.094 233.228,157.969 243.215,157.969 L301.158,157.969 L301.158,137.778 C301.158,131.464 296.043,127.441 290.627,124.984 L290.627,124.984 Z" id="Fill-32" fill="#EA963C"></path>
                <polygon id="Fill-33" fill="#EA963C" points="238.674 228.441 242.988 228.441 242.988 213.486 238.674 213.486"></polygon>
                <polygon id="Fill-34" fill="#EA963C" points="248.164 228.441 252.479 228.441 252.479 213.486 248.164 213.486"></polygon>
                <polygon id="Fill-35" fill="#EA963C" points="248.164 228.441 252.479 228.441 252.479 213.486 248.164 213.486"></polygon>
                <polygon id="Fill-36" fill="#EA963C" points="257.655 228.441 261.969 228.441 261.969 213.486 257.655 213.486"></polygon>
                <polygon id="Fill-37" fill="#EA963C" points="267.146 228.441 271.459 228.441 271.459 213.486 267.146 213.486"></polygon>
                <polygon id="Fill-38" fill="#EA963C" points="276.636 228.441 280.95 228.441 280.95 213.486 276.636 213.486"></polygon>
                <polygon id="Fill-39" fill="#EA963C" points="286.127 228.441 290.441 228.441 290.441 213.486 286.127 213.486"></polygon>
            </g>
        </g>
    </g>
</svg>