<?xml version="1.0" encoding="UTF-8" standalone="no"?>
<svg width="452px" height="144px" viewBox="0 0 452 144" version="1.1" xmlns="http://www.w3.org/2000/svg" xmlns:xlink="http://www.w3.org/1999/xlink">
    <!-- Generator: Sketch 42 (36781) - http://www.bohemiancoding.com/sketch -->
    <title>main_logo_fullcolor</title>
    <desc>Created with Sketch.</desc>
    <defs>
        <polygon id="path-1" points="42.056 81.693 42.056 0.367 21.0965 0.367 0.137 0.367 0.137 81.693 42.056 81.693"></polygon>
        <polygon id="path-3" points="0.06 0.09 0.06 71.737 90.204 71.737 90.204 0.09 0.06 0.09"></polygon>
        <polygon id="path-5" points="90.204 124.94 0.06 124.94 0.06 0.09 90.204 0.09"></polygon>
        <polygon id="path-7" points="0.71 21.94 29.601 21.94 29.601 0.444 0.71 0.444 0.71 21.94"></polygon>
        <polygon id="path-9" points="0.648 21.94 17.506 21.94 17.506 0.444 0.648 0.444 0.648 21.94"></polygon>
        <polygon id="path-11" points="26.056 0.412 26.056 13.106 0.126 13.106 0.126 0.412 26.056 0.412"></polygon>
    </defs>
    <g id="Page-1" stroke="none" stroke-width="1" fill="none" fill-rule="evenodd">
        <g id="main_logo_fullcolor">
            <g id="diAgrii-Logo-Coloured">
                <path d="M317.854,51.031 C317.854,60.701 324.86,66.636 332.412,66.636 C336.901,66.636 340.404,65.098 343.03,62.46 C345.548,59.822 347.081,56.195 347.3,51.91 C347.3,47.404 345.987,43.338 343.469,40.481 C341.061,37.513 337.338,35.755 332.522,35.755 C324.75,35.755 317.854,42.019 317.854,50.921 L317.854,51.031 Z M365.472,74.329 C365.472,83.451 364.815,89.275 361.859,94.44 C357.152,102.134 346.096,108.837 331.099,108.837 C309.972,108.837 301.981,96.09 300.777,87.407 L321.794,87.407 C323.108,90.375 325.516,91.913 327.596,92.683 C329.785,93.451 331.865,93.451 332.412,93.451 C339.309,93.451 347.191,89.166 347.191,78.615 L347.191,74.989 C345.111,78.506 339.857,83.671 330.332,83.671 C313.803,83.671 299.682,71.143 299.682,51.58 C299.682,30.699 314.57,18.721 330.332,18.721 C337.119,18.721 343.797,21.138 347.3,26.414 L347.3,19.034 L365.472,19.034 L365.472,74.329 L365.472,74.329 Z" id="Fill-1" fill="#2D694E"></path>
                <path d="M144.828,51.031 C144.828,60.372 151.505,66.636 160.044,66.636 C164.422,66.636 168.472,64.878 171.319,62.021 C174.165,59.163 175.807,55.207 175.588,50.701 C175.588,46.305 173.836,42.568 171.099,39.931 C168.363,37.183 164.531,35.645 160.262,35.645 C149.754,35.645 144.828,43.887 144.828,50.921 L144.828,51.031 Z M192.774,81.692 L175.478,81.692 L175.478,75.099 C173.727,77.626 169.348,83.671 157.088,83.671 C138.697,83.671 126.656,69.384 126.656,51.031 C126.656,30.369 141.325,18.61 156.759,18.61 C167.487,18.61 172.632,23.885 174.602,25.864 L174.602,0.367 L192.774,0.367 L192.774,81.692 L192.774,81.692 Z" id="Fill-2" fill="#375066"></path>
                <path d="M198.351,81.693 L216.523,81.693 L216.523,19.034 L198.351,19.034 L198.351,81.693 Z M198.351,16.367 L216.523,16.367 L216.523,0.367 L198.351,0.367 L198.351,16.367 Z" id="Fill-3" fill="#375066"></path>
                <path d="M262.164,25.094 L253.407,53.449 L271.25,53.449 L262.164,25.094 Z M244.54,81.692 L222.1,81.692 L254.173,0.367 L272.017,0.367 L303.105,81.692 L280.445,81.692 L276.614,69.934 L248.262,69.934 L244.54,81.692 L244.54,81.692 Z" id="Fill-4" fill="#2D694E"></path>
                <path d="M371.049,19.034 L388.125,19.034 L388.125,27.512 C389.877,24.215 393.051,19.61 403.56,19.61 L403.56,34.964 L402.904,34.964 C393.599,34.964 389.22,40.371 389.22,48.942 L389.22,81.692 L371.049,81.692 L371.049,19.034" id="Fill-5" fill="#2D694E"></path>
                <g id="Group-9" transform="translate(409.000000, 0.000000)">
                    <mask id="mask-2" fill="white">
                        <use xlink:href="#path-1"></use>
                    </mask>
                    <g id="Clip-7"></g>
                    <path d="M0.137,81.692 L18.308,81.692 L18.308,37.7 L0.137,37.7 L0.137,81.692 Z M0.137,35.034 L18.308,35.034 L18.308,19.034 L0.137,19.034 L0.137,35.034 Z" id="Fill-6" fill="#2D694E" mask="url(#mask-2)"></path>
                    <path d="M23.886,81.693 L42.057,81.693 L42.057,19.034 L23.886,19.034 L23.886,81.693 Z M23.886,16.367 L42.057,16.367 L42.057,0.367 L23.886,0.367 L23.886,16.367 Z" id="Fill-8" fill="#375066" mask="url(#mask-2)"></path>
                </g>
                <polyline id="Fill-10" fill="#375066" points="71.648 9.812 71.648 0.534 55.669 0.534 55.669 16.513 71.648 16.513 71.648 9.812"></polyline>
                <polygon id="Fill-11" fill="#375066" points="18.556 100.015 25.257 100.015 25.257 93.314 18.556 93.314"></polygon>
                <polygon id="Fill-12" fill="#2D694E" points="27.834 100.015 34.535 100.015 34.535 93.314 27.834 93.314"></polygon>
                <polyline id="Fill-13" fill="#2D694E" points="34.535 35.069 53.092 35.069 53.092 19.09 18.556 19.09 18.556 72.182 34.535 72.182 34.535 35.069"></polyline>
                <polygon id="Fill-14" fill="#EA963C" points="37.112 72.182 71.647 72.182 71.647 37.646 37.112 37.646"></polygon>
                <polygon id="Fill-15" fill="#2D694E" points="55.669 35.069 71.648 35.069 71.648 19.09 55.669 19.09"></polygon>
                <polygon id="Fill-16" fill="#375066" points="102.059 100.015 108.76 100.015 108.76 93.314 102.059 93.314"></polygon>
                <polygon id="Fill-17" fill="#375066" points="102.059 109.294 108.76 109.294 108.76 102.593 102.059 102.593"></polygon>
                <polyline id="Fill-18" fill="#375066" points="108.76 56.202 92.781 56.202 92.781 74.759 74.225 74.759 74.225 93.314 37.112 93.314 37.112 109.294 90.204 109.294 90.204 100.016 99.482 100.016 99.482 90.737 108.76 90.737 108.76 56.202"></polyline>
                <polygon id="Fill-19" fill="#2D694E" points="18.556 90.737 34.535 90.737 34.535 74.758 18.556 74.758"></polygon>
                <polygon id="Fill-20" fill="#375066" points="92.781 109.294 99.482 109.294 99.482 102.593 92.781 102.593"></polygon>
                <polygon id="Fill-21" fill="#375066" points="74.225 7.235 80.926 7.235 80.926 0.534 74.225 0.534"></polygon>
                <polygon id="Fill-22" fill="#2D694E" points="74.225 72.181 90.204 72.181 90.204 56.202 74.225 56.202"></polygon>
                <g id="Group-26" transform="translate(0.000000, 19.000000)">
                    <mask id="mask-4" fill="white">
                        <use xlink:href="#path-3"></use>
                    </mask>
                    <g id="Clip-24"></g>
                    <polygon id="Fill-23" fill="#2D694E" mask="url(#mask-4)" points="74.225 34.625 90.204 34.625 90.204 18.646 74.225 18.646"></polygon>
                    <polyline id="Fill-25" fill="#375066" mask="url(#mask-4)" points="15.979 53.182 15.979 0.09 0 0.09 0 71.737 15.979 71.737 15.979 53.182"></polyline>
                </g>
                <polygon id="Fill-27" fill="#2D694E" points="37.112 90.738 71.647 90.738 71.647 74.759 37.112 74.759"></polygon>
                <polygon id="Fill-28" fill="#375066" points="92.781 53.625 108.76 53.625 108.76 37.646 92.781 37.646"></polygon>
                <polygon id="Fill-29" fill="#375066" points="83.503 7.235 90.204 7.235 90.204 0.534 83.503 0.534"></polygon>
                <polygon id="Fill-30" fill="#2D694E" points="74.225 16.513 80.926 16.513 80.926 9.812 74.225 9.812"></polygon>
                <polygon id="Fill-31" fill="#375066" points="18.556 16.513 53.091 16.513 53.091 0.534 18.556 0.534"></polygon>
                <polygon id="Fill-32" fill="#375066" points="83.503 16.513 90.204 16.513 90.204 9.812 83.503 9.812"></polygon>
                <g id="Group-38" transform="translate(0.000000, 19.000000)">
                    <mask id="mask-6" fill="white">
                        <use xlink:href="#path-5"></use>
                    </mask>
                    <g id="Clip-34"></g>
                    <polygon id="Fill-33" fill="#2D694E" mask="url(#mask-6)" points="74.225 16.069 90.204 16.069 90.204 0.09 74.225 0.09"></polygon>
                    <path d="M2.601,117.462 L5.356,117.462 C9.191,117.462 10.954,115.016 10.954,111.621 C10.954,110.057 10.535,108.558 9.631,107.456 C8.772,106.464 7.471,105.736 5.378,105.736 L2.601,105.736 L2.601,117.462 Z M0,103.444 L5.047,103.444 C7.229,103.444 9.94,103.775 11.747,106.09 C12.982,107.566 13.532,109.439 13.532,111.577 C13.532,116.338 10.954,119.754 5.223,119.754 L0,119.754 L0,103.444 L0,103.444 Z" id="Fill-35" fill="#375066" mask="url(#mask-6)"></path>
                    <path d="M15.336,119.754 L17.628,119.754 L17.628,107.765 L15.336,107.765 L15.336,119.754 Z M15.336,105.869 L17.628,105.869 L17.628,103.444 L15.336,103.444 L15.336,105.869 Z" id="Fill-36" fill="#375066" mask="url(#mask-6)"></path>
                    <path d="M21.682,113.76 C21.682,116.008 23.291,117.97 25.825,117.97 C27.038,117.97 28.051,117.506 28.778,116.757 C29.484,116.029 29.924,114.993 29.947,113.825 C29.947,112.878 29.638,111.798 28.977,110.982 C28.316,110.145 27.28,109.572 25.825,109.572 C23.555,109.572 21.682,111.269 21.682,113.737 L21.682,113.76 Z M32.195,118.365 C32.195,120.459 31.666,121.804 30.785,122.818 C29.683,124.096 27.809,125 25.737,125 C22.343,125 20.36,123.017 19.787,121.01 L22.431,121.01 C22.696,121.539 23.159,122.024 23.754,122.398 C24.481,122.884 25.297,123.038 25.825,123.038 C27.831,123.038 29.902,121.562 29.902,118.873 L29.902,117.638 C29.197,118.982 27.743,120.106 25.583,120.106 C21.99,120.106 19.39,117.374 19.39,113.804 C19.39,110.057 22.101,107.412 25.583,107.412 C27.589,107.412 29.242,108.47 29.902,109.793 L29.902,107.765 L32.195,107.765 L32.195,118.365 L32.195,118.365 Z" id="Fill-37" fill="#375066" mask="url(#mask-6)"></path>
                </g>
                <path d="M34.616,138.754 L36.909,138.754 L36.909,126.765 L34.616,126.765 L34.616,138.754 Z M34.616,124.869 L36.909,124.869 L36.909,122.444 L34.616,122.444 L34.616,124.869 Z" id="Fill-39" fill="#375066"></path>
                <polyline id="Fill-40" fill="#375066" points="40.213 128.55 38.053 128.55 38.053 126.765 40.213 126.765 40.213 122.444 42.505 122.444 42.505 126.765 44.819 126.765 44.819 128.55 42.505 128.55 42.505 138.754 40.213 138.754 40.213 128.55"></polyline>
                <path d="M46.999,132.804 C47.021,134.589 48.277,136.97 51.187,136.97 C53.016,136.97 54.317,135.955 54.911,134.589 C55.176,134.037 55.308,133.421 55.33,132.804 C55.352,132.187 55.242,131.569 54.978,131.019 C54.405,129.63 53.06,128.55 51.143,128.55 C48.63,128.55 46.999,130.533 46.999,132.781 L46.999,132.804 Z M57.6,138.754 L55.308,138.754 L55.308,136.661 C54.471,138.27 52.752,139.106 50.856,139.106 C46.999,139.106 44.707,136.109 44.707,132.76 C44.707,129.101 47.374,126.412 50.856,126.412 C53.236,126.412 54.757,127.734 55.308,128.881 L55.308,126.765 L57.6,126.765 L57.6,138.754 L57.6,138.754 Z" id="Fill-41" fill="#375066"></path>
                <polygon id="Fill-42" fill="#375066" points="60.066 138.754 62.358 138.754 62.358 122.444 60.066 122.444"></polygon>
                <polygon id="Fill-43" fill="#375066" points="70.818 138.754 73.419 138.754 73.419 122.444 70.818 122.444"></polygon>
                <path d="M75.952,126.765 L78.111,126.765 L78.111,128.616 C78.684,127.382 80.029,126.39 82.167,126.412 C86.002,126.456 87.015,129.232 87.015,131.724 L87.015,138.754 L84.701,138.754 L84.701,132.253 C84.701,130.093 83.864,128.55 81.527,128.572 C79.279,128.594 78.244,130.005 78.244,132.076 L78.244,138.754 L75.952,138.754 L75.952,126.765" id="Fill-44" fill="#375066"></path>
                <path d="M89.414,126.765 L91.574,126.765 L91.574,128.616 C92.147,127.382 93.492,126.39 95.63,126.412 C99.465,126.456 100.478,129.232 100.478,131.724 L100.478,138.754 L98.164,138.754 L98.164,132.253 C98.164,130.093 97.327,128.55 94.99,128.572 C92.742,128.594 91.706,130.005 91.706,132.076 L91.706,138.754 L89.414,138.754 L89.414,126.765" id="Fill-45" fill="#375066"></path>
                <path d="M104.486,132.781 C104.486,135.161 106.293,136.947 108.585,136.947 C110.877,136.947 112.685,135.161 112.685,132.76 C112.685,130.356 110.877,128.572 108.585,128.572 C106.293,128.572 104.486,130.356 104.486,132.76 L104.486,132.781 Z M102.194,132.737 C102.194,129.541 104.552,126.412 108.585,126.412 C112.619,126.412 114.977,129.541 114.977,132.76 C114.977,135.978 112.619,139.085 108.585,139.085 C104.552,139.085 102.194,135.978 102.194,132.76 L102.194,132.737 L102.194,132.737 Z" id="Fill-46" fill="#375066"></path>
                <polyline id="Fill-47" fill="#375066" points="121.762 138.754 119.47 138.754 114.886 126.765 117.288 126.765 120.616 135.89 123.944 126.765 126.346 126.765 121.762 138.754"></polyline>
                <path d="M128.525,132.804 C128.547,134.589 129.803,136.97 132.713,136.97 C134.542,136.97 135.842,135.955 136.438,134.589 C136.702,134.037 136.834,133.421 136.856,132.804 C136.878,132.187 136.768,131.569 136.504,131.019 C135.931,129.63 134.586,128.55 132.669,128.55 C130.156,128.55 128.525,130.533 128.525,132.781 L128.525,132.804 Z M139.126,138.754 L136.834,138.754 L136.834,136.661 C135.997,138.27 134.278,139.106 132.382,139.106 C128.525,139.106 126.233,136.109 126.233,132.76 C126.233,129.101 128.9,126.412 132.382,126.412 C134.762,126.412 136.283,127.734 136.834,128.881 L136.834,126.765 L139.126,126.765 L139.126,138.754 L139.126,138.754 Z" id="Fill-48" fill="#375066"></path>
                <polyline id="Fill-49" fill="#375066" points="142.451 128.55 140.291 128.55 140.291 126.765 142.451 126.765 142.451 122.444 144.743 122.444 144.743 126.765 147.057 126.765 147.057 128.55 144.743 128.55 144.743 138.754 142.451 138.754 142.451 128.55"></polyline>
                <path d="M148.224,138.754 L150.516,138.754 L150.516,126.765 L148.224,126.765 L148.224,138.754 Z M148.224,124.869 L150.516,124.869 L150.516,122.444 L148.224,122.444 L148.224,124.869 Z" id="Fill-50" fill="#375066"></path>
                <path d="M154.57,132.781 C154.57,135.161 156.377,136.947 158.669,136.947 C160.961,136.947 162.769,135.161 162.769,132.76 C162.769,130.356 160.961,128.572 158.669,128.572 C156.377,128.572 154.57,130.356 154.57,132.76 L154.57,132.781 Z M152.278,132.737 C152.278,129.541 154.635,126.412 158.669,126.412 C162.703,126.412 165.061,129.541 165.061,132.76 C165.061,135.978 162.703,139.085 158.669,139.085 C154.635,139.085 152.278,135.978 152.278,132.76 L152.278,132.737 L152.278,132.737 Z" id="Fill-51" fill="#375066"></path>
                <path d="M166.842,126.765 L169.002,126.765 L169.002,128.616 C169.575,127.382 170.92,126.39 173.058,126.412 C176.893,126.456 177.906,129.232 177.906,131.724 L177.906,138.754 L175.592,138.754 L175.592,132.253 C175.592,130.093 174.755,128.55 172.418,128.572 C170.17,128.594 169.134,130.005 169.134,132.076 L169.134,138.754 L166.842,138.754 L166.842,126.765" id="Fill-52" fill="#375066"></path>
                <path d="M191.676,124.076 C190.618,124.076 189.913,124.936 189.913,125.883 C189.913,127.007 190.773,127.778 191.411,128.462 C192.756,127.713 193.549,127.161 193.549,125.928 C193.549,124.957 192.822,124.076 191.698,124.076 L191.676,124.076 Z M190.949,131.085 C189.141,131.988 188.414,133.024 188.414,134.214 C188.414,135.669 189.582,136.858 191.214,136.858 C192.844,136.858 193.616,135.955 194.343,134.545 L190.949,131.085 Z M199.919,128.858 L197.12,134.17 L200.382,137.498 L198.795,139.041 L195.886,136.043 C195.004,137.74 193.748,139.062 191.125,139.062 C187.907,139.062 185.902,136.881 185.902,134.413 C185.902,131.789 188.061,130.423 189.516,129.652 C188.414,128.484 187.687,127.426 187.643,126.016 C187.643,123.877 189.406,122.136 191.676,122.136 C193.968,122.136 195.665,123.877 195.665,125.949 C195.665,128.131 193.99,129.101 192.756,129.762 L195.577,132.627 L197.494,128.858 L199.919,128.858 L199.919,128.858 Z" id="Fill-53" fill="#375066"></path>
                <g id="Group-57" transform="translate(205.000000, 122.000000)">
                    <mask id="mask-8" fill="white">
                        <use xlink:href="#path-7"></use>
                    </mask>
                    <g id="Clip-55"></g>
                    <path d="M8.49,3.464 L5.736,10.804 L11.289,10.804 L8.49,3.464 Z M3.531,16.754 L0.71,16.754 L7.411,0.444 L9.769,0.444 L16.359,16.754 L13.538,16.754 L11.995,12.896 L5.03,12.896 L3.531,16.754 L3.531,16.754 Z" id="Fill-54" fill="#375066" mask="url(#mask-8)"></path>
                    <path d="M19.088,10.76 C19.088,13.008 20.697,14.97 23.232,14.97 C24.444,14.97 25.457,14.506 26.184,13.757 C26.89,13.029 27.33,11.993 27.352,10.825 C27.352,9.878 27.044,8.798 26.383,7.982 C25.722,7.145 24.686,6.572 23.232,6.572 C20.961,6.572 19.088,8.269 19.088,10.737 L19.088,10.76 Z M29.601,15.365 C29.601,17.459 29.071,18.804 28.19,19.818 C27.088,21.096 25.215,22 23.143,22 C19.748,22 17.765,20.017 17.192,18.01 L19.837,18.01 C20.102,18.539 20.564,19.024 21.159,19.398 C21.887,19.884 22.702,20.038 23.232,20.038 C25.236,20.038 27.308,18.562 27.308,15.873 L27.308,14.638 C26.604,15.982 25.149,17.106 22.988,17.106 C19.396,17.106 16.796,14.374 16.796,10.804 C16.796,7.057 19.507,4.412 22.988,4.412 C24.994,4.412 26.648,5.47 27.308,6.793 L27.308,4.765 L29.601,4.765 L29.601,15.365 L29.601,15.365 Z" id="Fill-56" fill="#375066" mask="url(#mask-8)"></path>
                </g>
                <path d="M237.022,126.765 L239.182,126.765 L239.182,128.528 C239.864,127.117 241.121,126.434 242.752,126.412 L242.752,128.704 L242.598,128.704 C240.438,128.704 239.314,129.895 239.314,132.274 L239.314,138.754 L237.022,138.754 L237.022,126.765" id="Fill-58" fill="#375066"></path>
                <path d="M244.006,138.754 L246.298,138.754 L246.298,126.765 L244.006,126.765 L244.006,138.754 Z M244.006,124.869 L246.298,124.869 L246.298,122.444 L244.006,122.444 L244.006,124.869 Z" id="Fill-59" fill="#375066"></path>
                <path d="M260.557,134.545 C259.829,137.145 257.471,139.106 254.474,139.106 C250.551,139.106 248.06,136.088 248.06,132.76 C248.06,129.211 250.772,126.412 254.363,126.412 C257.229,126.412 259.808,128.175 260.557,131.062 L258.198,131.062 C257.581,129.453 256.082,128.55 254.452,128.55 C253.239,128.528 252.358,128.925 251.52,129.718 C250.816,130.423 250.352,131.547 250.352,132.76 C250.352,135.228 252.159,136.97 254.452,136.97 C256.457,136.947 257.713,135.734 258.198,134.545 L260.557,134.545" id="Fill-60" fill="#375066"></path>
                <path d="M273.271,138.754 L271.112,138.754 L271.112,136.902 C270.538,138.138 269.194,139.129 267.055,139.106 C263.199,139.085 262.206,136.285 262.206,133.795 L262.206,126.765 L264.498,126.765 L264.498,133.267 C264.498,135.426 265.336,136.97 267.695,136.97 C269.944,136.947 270.979,135.515 270.979,133.465 L270.979,126.765 L273.271,126.765 L273.271,138.754" id="Fill-61" fill="#375066"></path>
                <polygon id="Fill-62" fill="#375066" points="275.713 138.754 278.005 138.754 278.005 122.444 275.713 122.444"></polygon>
                <polyline id="Fill-63" fill="#375066" points="281.31 128.55 279.151 128.55 279.151 126.765 281.31 126.765 281.31 122.444 283.602 122.444 283.602 126.765 285.916 126.765 285.916 128.55 283.602 128.55 283.602 138.754 281.31 138.754 281.31 128.55"></polyline>
                <path d="M298.124,138.754 L295.965,138.754 L295.965,136.902 C295.392,138.138 294.048,139.129 291.909,139.106 C288.053,139.085 287.061,136.285 287.061,133.795 L287.061,126.765 L289.353,126.765 L289.353,133.267 C289.353,135.426 290.191,136.97 292.549,136.97 C294.797,136.947 295.832,135.515 295.832,133.465 L295.832,126.765 L298.124,126.765 L298.124,138.754" id="Fill-64" fill="#375066"></path>
                <path d="M300.568,126.765 L302.728,126.765 L302.728,128.528 C303.41,127.117 304.667,126.434 306.298,126.412 L306.298,128.704 L306.144,128.704 C303.984,128.704 302.86,129.895 302.86,132.274 L302.86,138.754 L300.568,138.754 L300.568,126.765" id="Fill-65" fill="#375066"></path>
                <path d="M308.302,132.804 C308.324,134.589 309.58,136.97 312.489,136.97 C314.319,136.97 315.619,135.955 316.214,134.589 C316.479,134.037 316.611,133.421 316.633,132.804 C316.655,132.187 316.545,131.569 316.28,131.019 C315.707,129.63 314.363,128.55 312.445,128.55 C309.933,128.55 308.302,130.533 308.302,132.781 L308.302,132.804 Z M318.904,138.754 L316.611,138.754 L316.611,136.661 C315.773,138.27 314.054,139.106 312.159,139.106 C308.302,139.106 306.01,136.109 306.01,132.76 C306.01,129.101 308.676,126.412 312.159,126.412 C314.539,126.412 316.061,127.734 316.611,128.881 L316.611,126.765 L318.904,126.765 L318.904,138.754 L318.904,138.754 Z" id="Fill-66" fill="#375066"></path>
                <polygon id="Fill-67" fill="#375066" points="321.368 138.754 323.66 138.754 323.66 122.444 321.368 122.444"></polygon>
                <polygon id="Fill-68" fill="#375066" points="332.122 138.754 334.722 138.754 334.722 122.444 332.122 122.444"></polygon>
                <path d="M337.254,126.765 L339.414,126.765 L339.414,128.616 C339.987,127.382 341.332,126.39 343.469,126.412 C347.305,126.456 348.319,129.232 348.319,131.724 L348.319,138.754 L346.004,138.754 L346.004,132.253 C346.004,130.093 345.166,128.55 342.83,128.572 C340.582,128.594 339.546,130.005 339.546,132.076 L339.546,138.754 L337.254,138.754 L337.254,126.765" id="Fill-69" fill="#375066"></path>
                <polyline id="Fill-70" fill="#375066" points="351.576 128.55 349.417 128.55 349.417 126.765 351.576 126.765 351.576 122.444 353.868 122.444 353.868 126.765 356.183 126.765 356.183 128.55 353.868 128.55 353.868 138.754 351.576 138.754 351.576 128.55"></polyline>
                <path d="M366.21,131.701 C366.099,130.114 364.513,128.329 362.242,128.373 C359.905,128.373 358.385,130.07 358.276,131.701 L366.21,131.701 Z M358.232,133.486 C358.341,135.911 360.457,137.145 362.265,137.145 C363.874,137.145 365.064,136.374 365.725,135.117 L368.106,135.117 C367.532,136.44 366.695,137.432 365.681,138.094 C364.666,138.776 363.477,139.106 362.265,139.106 C358.341,139.106 355.917,135.955 355.917,132.781 C355.917,129.344 358.606,126.412 362.242,126.412 C363.962,126.412 365.526,127.052 366.672,128.175 C368.082,129.608 368.679,131.48 368.48,133.486 L358.232,133.486 L358.232,133.486 Z" id="Fill-71" fill="#375066"></path>
                <polygon id="Fill-72" fill="#375066" points="370.173 138.754 372.465 138.754 372.465 122.444 370.173 122.444"></polygon>
                <polygon id="Fill-73" fill="#375066" points="374.911 138.754 377.203 138.754 377.203 122.444 374.911 122.444"></polygon>
                <g id="Group-77" transform="translate(379.000000, 122.000000)">
                    <mask id="mask-10" fill="white">
                        <use xlink:href="#path-9"></use>
                    </mask>
                    <g id="Clip-75"></g>
                    <path d="M0.648,16.754 L2.94,16.754 L2.94,4.765 L0.648,4.765 L0.648,16.754 Z M0.648,2.869 L2.94,2.869 L2.94,0.444 L0.648,0.444 L0.648,2.869 Z" id="Fill-74" fill="#375066" mask="url(#mask-10)"></path>
                    <path d="M6.993,10.76 C6.993,13.008 8.603,14.97 11.138,14.97 C12.35,14.97 13.363,14.506 14.09,13.757 C14.796,13.029 15.237,11.993 15.258,10.825 C15.258,9.878 14.949,8.798 14.289,7.982 C13.628,7.145 12.592,6.572 11.138,6.572 C8.867,6.572 6.993,8.269 6.993,10.737 L6.993,10.76 Z M17.506,15.365 C17.506,17.459 16.978,18.804 16.096,19.818 C14.993,21.096 13.121,22 11.049,22 C7.654,22 5.671,20.017 5.098,18.01 L7.743,18.01 C8.008,18.539 8.47,19.024 9.065,19.398 C9.793,19.884 10.609,20.038 11.138,20.038 C13.143,20.038 15.214,18.562 15.214,15.873 L15.214,14.638 C14.51,15.982 13.055,17.106 10.895,17.106 C7.302,17.106 4.701,14.374 4.701,10.804 C4.701,7.057 7.413,4.412 10.895,4.412 C12.901,4.412 14.554,5.47 15.214,6.793 L15.214,4.765 L17.506,4.765 L17.506,15.365 L17.506,15.365 Z" id="Fill-76" fill="#375066" mask="url(#mask-10)"></path>
                </g>
                <path d="M408.383,131.701 C408.272,130.114 406.686,128.329 404.416,128.373 C402.079,128.373 400.559,130.07 400.448,131.701 L408.383,131.701 Z M400.404,133.486 C400.515,135.911 402.63,137.145 404.438,137.145 C406.047,137.145 407.237,136.374 407.898,135.117 L410.279,135.117 C409.705,136.44 408.868,137.432 407.854,138.094 C406.84,138.776 405.65,139.106 404.438,139.106 C400.515,139.106 398.09,135.955 398.09,132.781 C398.09,129.344 400.779,126.412 404.416,126.412 C406.135,126.412 407.699,127.052 408.845,128.175 C410.256,129.608 410.852,131.48 410.653,133.486 L400.404,133.486 L400.404,133.486 Z" id="Fill-78" fill="#375066"></path>
                <path d="M412.346,126.765 L414.506,126.765 L414.506,128.616 C415.079,127.382 416.424,126.39 418.562,126.412 C422.397,126.456 423.411,129.232 423.411,131.724 L423.411,138.754 L421.096,138.754 L421.096,132.253 C421.096,130.093 420.258,128.55 417.922,128.572 C415.674,128.594 414.638,130.005 414.638,132.076 L414.638,138.754 L412.346,138.754 L412.346,126.765" id="Fill-79" fill="#375066"></path>
                <g id="Group-83" transform="translate(425.000000, 126.000000)">
                    <mask id="mask-12" fill="white">
                        <use xlink:href="#path-11"></use>
                    </mask>
                    <g id="Clip-81"></g>
                    <path d="M12.622,8.545 C11.896,11.145 9.536,13.106 6.54,13.106 C2.616,13.106 0.126,10.088 0.126,6.76 C0.126,3.211 2.837,0.412 6.429,0.412 C9.294,0.412 11.873,2.175 12.622,5.062 L10.265,5.062 C9.648,3.453 8.148,2.55 6.518,2.55 C5.305,2.528 4.424,2.925 3.586,3.718 C2.881,4.423 2.418,5.547 2.418,6.76 C2.418,9.228 4.225,10.97 6.518,10.97 C8.524,10.947 9.779,9.734 10.265,8.545 L12.622,8.545" id="Fill-80" fill="#375066" mask="url(#mask-12)"></path>
                    <path d="M23.749,5.701 C23.638,4.114 22.052,2.329 19.782,2.373 C17.445,2.373 15.925,4.07 15.815,5.701 L23.749,5.701 Z M15.771,7.486 C15.881,9.911 17.996,11.145 19.804,11.145 C21.413,11.145 22.603,10.374 23.264,9.117 L25.645,9.117 C25.071,10.44 24.235,11.432 23.22,12.094 C22.206,12.776 21.016,13.106 19.804,13.106 C15.881,13.106 13.456,9.955 13.456,6.781 C13.456,3.344 16.146,0.412 19.782,0.412 C21.501,0.412 23.066,1.052 24.211,2.175 C25.622,3.608 26.218,5.48 26.019,7.486 L15.771,7.486 L15.771,7.486 Z" id="Fill-82" fill="#375066" mask="url(#mask-12)"></path>
                </g>
            </g>
        </g>
    </g>
</svg>