<?xml version="1.0" encoding="UTF-8" standalone="no"?>
<svg width="452px" height="146px" viewBox="0 0 452 146" version="1.1" xmlns="http://www.w3.org/2000/svg" xmlns:xlink="http://www.w3.org/1999/xlink">
    <!-- Generator: Sketch 42 (36781) - http://www.bohemiancoding.com/sketch -->
    <title>main_logo_knockout</title>
    <desc>Created with Sketch.</desc>
    <defs>
        <polygon id="path-1" points="0 595.28 841.89 595.28 841.89 0 0 0"></polygon>
        <polygon id="path-3" points="0 595.28 841.89 595.28 841.89 0 0 0"></polygon>
    </defs>
    <g id="Page-1" stroke="none" stroke-width="1" fill="none" fill-rule="evenodd">
        <g id="main_logo_knockout">
            <g id="diAgrii-Logo-Knockout" transform="translate(-195.000000, -243.000000)">
                <path d="M340.2446,293.8403 C340.2446,303.1813 346.9216,309.4453 355.4606,309.4453 C359.8386,309.4453 363.8896,307.6873 366.7356,304.8303 C369.5816,301.9723 371.2236,298.0163 371.0046,293.5103 C371.0046,289.1143 369.2526,285.3783 366.5156,282.7403 C363.7796,279.9923 359.9486,278.4543 355.6796,278.4543 C345.1706,278.4543 340.2446,286.6963 340.2446,293.7303 L340.2446,293.8403 Z M388.1906,324.5023 L370.8946,324.5023 L370.8946,317.9083 C369.1436,320.4353 364.7656,326.4803 352.5046,326.4803 C334.1146,326.4803 322.0726,312.1933 322.0726,293.8403 C322.0726,273.1783 336.7416,261.4203 352.1766,261.4203 C362.9036,261.4203 368.0486,266.6943 370.0186,268.6733 L370.0186,262.0793 L370.0186,243.1763 L388.1906,243.1763 L388.1906,324.5023 Z" id="Fill-1" fill="#FFFFFF"></path>
                <mask id="mask-2" fill="white">
                    <use xlink:href="#path-1"></use>
                </mask>
                <g id="Clip-4"></g>
                <path d="M393.768,324.502 L411.939,324.502 L411.939,261.843 L393.768,261.843 L393.768,324.502 Z M393.768,259.177 L411.939,259.177 L411.939,243.177 L393.768,243.177 L393.768,259.177 Z" id="Fill-3" fill="#FFFFFF" mask="url(#mask-2)"></path>
                <path d="M457.5811,267.9038 L448.8241,296.2578 L466.6671,296.2578 L457.5811,267.9038 Z M439.9571,324.5018 L417.5171,324.5018 L449.5901,243.1768 L467.4341,243.1768 L498.5211,324.5018 L475.8621,324.5018 L472.0311,312.7428 L443.6791,312.7428 L439.9571,324.5018 Z" id="Fill-5" fill="#FFFFFF" mask="url(#mask-2)"></path>
                <path d="M513.2705,293.8403 C513.2705,303.5103 520.2765,309.4453 527.8295,309.4453 C532.3175,309.4453 535.8205,307.9073 538.4475,305.2693 C540.9645,302.6323 542.4985,299.0053 542.7165,294.7193 C542.7165,290.2143 541.4035,286.1473 538.8855,283.2903 C536.4775,280.3223 532.7545,278.5643 527.9385,278.5643 C520.1665,278.5643 513.2705,284.8283 513.2705,293.7303 L513.2705,293.8403 Z M560.8885,317.1383 C560.8885,326.2603 560.2315,332.0853 557.2755,337.2503 C552.5685,344.9433 541.5125,351.6463 526.5155,351.6463 C505.3885,351.6463 497.3975,338.8993 496.1935,330.2163 L517.2105,330.2163 C518.5245,333.1843 520.9325,334.7223 523.0125,335.4923 C525.2025,336.2603 527.2825,336.2603 527.8295,336.2603 C534.7255,336.2603 542.6075,331.9753 542.6075,321.4243 L542.6075,317.7983 C540.5275,321.3153 535.2735,326.4803 525.7495,326.4803 C509.2195,326.4803 495.0985,313.9523 495.0985,294.3893 C495.0985,273.5083 509.9865,261.5303 525.7495,261.5303 C532.5365,261.5303 539.2135,263.9473 542.7165,269.2233 L542.7165,261.8433 L560.8885,261.8433 L560.8885,317.1383 Z" id="Fill-6" fill="#FFFFFF" mask="url(#mask-2)"></path>
                <path d="M566.4658,261.8433 L583.5418,261.8433 L583.5418,270.3223 C585.2938,267.0253 588.4678,262.4203 598.9768,262.4203 L598.9768,277.7733 L598.3198,277.7733 C589.0158,277.7733 584.6368,283.1803 584.6368,291.7523 L584.6368,324.5023 L566.4658,324.5023 L566.4658,261.8433 Z" id="Fill-7" fill="#FFFFFF" mask="url(#mask-2)"></path>
                <path d="M604.554,324.502 L622.725,324.502 L622.725,280.51 L604.554,280.51 L604.554,324.502 Z M604.554,277.843 L622.725,277.843 L622.725,261.843 L604.554,261.843 L604.554,277.843 Z" id="Fill-8" fill="#FFFFFF" mask="url(#mask-2)"></path>
                <path d="M628.303,324.502 L646.474,324.502 L646.474,261.843 L628.303,261.843 L628.303,324.502 Z M628.303,259.177 L646.474,259.177 L646.474,243.177 L628.303,243.177 L628.303,259.177 Z" id="Fill-9" fill="#FFFFFF" mask="url(#mask-2)"></path>
                <polygon id="Fill-10" fill="#FFFFFF" mask="url(#mask-2)" points="267.0645 252.6216 267.0645 250.0436 267.0645 243.3436 251.0855 243.3436 251.0855 259.3226 267.0645 259.3226"></polygon>
                <polygon id="Fill-11" fill="#FFFFFF" mask="url(#mask-2)" points="213.973 342.825 220.674 342.825 220.674 336.124 213.973 336.124"></polygon>
                <polygon id="Fill-12" fill="#FFFFFF" mask="url(#mask-2)" points="223.251 342.825 229.952 342.825 229.952 336.124 223.251 336.124"></polygon>
                <polygon id="Fill-13" fill="#FFFFFF" mask="url(#mask-2)" points="229.9521 277.8784 248.5081 277.8784 248.5081 261.8994 213.9731 261.8994 213.9731 314.9914 229.9521 314.9914"></polygon>
                <polygon id="Fill-14" fill="#FFFFFF" mask="url(#mask-2)" points="232.5293 280.4556 232.5293 314.9916 267.0643 314.9916 267.0643 299.0116 267.0643 280.4556 248.5083 280.4556"></polygon>
                <polygon id="Fill-15" fill="#FFFFFF" mask="url(#mask-2)" points="251.085 277.878 267.064 277.878 267.064 261.899 251.085 261.899"></polygon>
                <polygon id="Fill-16" fill="#FFFFFF" mask="url(#mask-2)" points="297.476 342.825 304.177 342.825 304.177 336.124 297.476 336.124"></polygon>
                <polygon id="Fill-17" fill="#FFFFFF" mask="url(#mask-2)" points="297.476 352.104 304.177 352.104 304.177 345.403 297.476 345.403"></polygon>
                <polygon id="Fill-18" fill="#FFFFFF" mask="url(#mask-2)" points="304.1768 299.0117 288.1978 299.0117 288.1978 317.5687 269.6418 317.5687 269.6418 336.1237 232.5298 336.1237 232.5298 345.4027 232.5298 352.1037 285.6208 352.1037 285.6208 342.8247 294.8988 342.8247 294.8988 333.5467 304.1768 333.5467"></polygon>
                <polygon id="Fill-19" fill="#FFFFFF" mask="url(#mask-2)" points="229.9521 317.5684 213.9731 317.5684 213.9731 333.5474 220.6741 333.5474 223.2511 333.5474 229.9521 333.5474"></polygon>
                <polygon id="Fill-20" fill="#FFFFFF" mask="url(#mask-2)" points="288.198 352.103 294.899 352.103 294.899 345.402 288.198 345.402"></polygon>
                <polygon id="Fill-21" fill="#FFFFFF" mask="url(#mask-2)" points="269.642 250.044 276.343 250.044 276.343 243.343 269.642 243.343"></polygon>
                <polygon id="Fill-22" fill="#FFFFFF" mask="url(#mask-2)" points="269.642 314.991 285.621 314.991 285.621 299.012 269.642 299.012"></polygon>
                <polygon id="Fill-23" fill="#FFFFFF" mask="url(#mask-2)" points="269.642 296.435 285.621 296.435 285.621 280.456 269.642 280.456"></polygon>
                <polygon id="Fill-24" fill="#FFFFFF" mask="url(#mask-2)" points="211.396 314.9912 211.396 261.8992 195.417 261.8992 195.417 333.5472 211.396 333.5472 211.396 317.5682"></polygon>
                <polygon id="Fill-25" fill="#FFFFFF" mask="url(#mask-2)" points="232.529 333.547 267.064 333.547 267.064 317.568 232.529 317.568"></polygon>
                <polygon id="Fill-26" fill="#FFFFFF" mask="url(#mask-2)" points="288.198 296.435 304.177 296.435 304.177 280.456 288.198 280.456"></polygon>
                <polygon id="Fill-27" fill="#FFFFFF" mask="url(#mask-2)" points="278.92 250.044 285.621 250.044 285.621 243.343 278.92 243.343"></polygon>
                <polygon id="Fill-28" fill="#FFFFFF" mask="url(#mask-2)" points="269.642 259.322 276.343 259.322 276.343 252.621 269.642 252.621"></polygon>
                <polygon id="Fill-29" fill="#FFFFFF" mask="url(#mask-2)" points="213.973 259.322 248.508 259.322 248.508 243.343 213.973 243.343"></polygon>
                <polygon id="Fill-30" fill="#FFFFFF" mask="url(#mask-2)" points="278.92 259.322 285.621 259.322 285.621 252.621 278.92 252.621"></polygon>
                <polygon id="Fill-31" fill="#FFFFFF" mask="url(#mask-2)" points="269.6416 277.8784 285.6206 277.8784 285.6206 261.8994 278.9196 261.8994 276.3426 261.8994 269.6416 261.8994"></polygon>
                <path d="M198.0176,379.2715 L200.7726,379.2715 C204.6076,379.2715 206.3706,376.8255 206.3706,373.4305 C206.3706,371.8665 205.9526,370.3675 205.0476,369.2655 C204.1886,368.2735 202.8886,367.5455 200.7946,367.5455 L198.0176,367.5455 L198.0176,379.2715 Z M195.4166,365.2535 L200.4636,365.2535 C202.6456,365.2535 205.3566,365.5845 207.1636,367.8995 C208.3986,369.3755 208.9496,371.2495 208.9496,373.3865 C208.9496,378.1475 206.3706,381.5635 200.6406,381.5635 L195.4166,381.5635 L195.4166,365.2535 Z" id="Fill-32" fill="#FFFFFF" mask="url(#mask-2)"></path>
                <path d="M210.753,381.563 L213.045,381.563 L213.045,369.574 L210.753,369.574 L210.753,381.563 Z M210.753,367.679 L213.045,367.679 L213.045,365.254 L210.753,365.254 L210.753,367.679 Z" id="Fill-33" fill="#FFFFFF" mask="url(#mask-2)"></path>
                <path d="M217.0986,375.5693 C217.0986,377.8173 218.7076,379.7793 221.2426,379.7793 C222.4546,379.7793 223.4686,379.3153 224.1956,378.5663 C224.9006,377.8393 225.3416,376.8023 225.3636,375.6343 C225.3636,374.6873 225.0556,373.6073 224.3936,372.7923 C223.7326,371.9543 222.6976,371.3823 221.2426,371.3823 C218.9726,371.3823 217.0986,373.0783 217.0986,375.5473 L217.0986,375.5693 Z M227.6116,380.1743 C227.6116,382.2683 227.0826,383.6133 226.2016,384.6283 C225.0996,385.9053 223.2256,386.8093 221.1546,386.8093 C217.7606,386.8093 215.7766,384.8263 215.2036,382.8193 L217.8486,382.8193 C218.1126,383.3483 218.5756,383.8343 219.1706,384.2083 C219.8976,384.6933 220.7136,384.8473 221.2426,384.8473 C223.2476,384.8473 225.3196,383.3713 225.3196,380.6823 L225.3196,379.4473 C224.6146,380.7923 223.1596,381.9163 220.9996,381.9163 C217.4076,381.9163 214.8066,379.1833 214.8066,375.6133 C214.8066,371.8663 217.5176,369.2213 220.9996,369.2213 C223.0056,369.2213 224.6586,370.2793 225.3196,371.6023 L225.3196,369.5743 L227.6116,369.5743 L227.6116,380.1743 Z" id="Fill-34" fill="#FFFFFF" mask="url(#mask-2)"></path>
                <path d="M230.033,381.563 L232.325,381.563 L232.325,369.574 L230.033,369.574 L230.033,381.563 Z M230.033,367.679 L232.325,367.679 L232.325,365.254 L230.033,365.254 L230.033,367.679 Z" id="Fill-35" fill="#FFFFFF" mask="url(#mask-2)"></path>
                <polygon id="Fill-36" fill="#FFFFFF" mask="url(#mask-2)" points="235.6299 371.3594 233.4699 371.3594 233.4699 369.5744 235.6299 369.5744 235.6299 365.2544 237.9219 365.2544 237.9219 369.5744 240.2359 369.5744 240.2359 371.3594 237.9219 371.3594 237.9219 381.5634 235.6299 381.5634"></polygon>
                <path d="M242.416,375.6133 C242.438,377.3983 243.694,379.7793 246.603,379.7793 C248.433,379.7793 249.733,378.7643 250.328,377.3983 C250.593,376.8463 250.725,376.2303 250.747,375.6133 C250.769,374.9963 250.659,374.3793 250.395,373.8283 C249.822,372.4393 248.477,371.3593 246.56,371.3593 C244.047,371.3593 242.416,373.3423 242.416,375.5913 L242.416,375.6133 Z M253.017,381.5633 L250.725,381.5633 L250.725,379.4703 C249.888,381.0793 248.168,381.9163 246.273,381.9163 C242.416,381.9163 240.124,378.9193 240.124,375.5693 C240.124,371.9103 242.791,369.2213 246.273,369.2213 C248.653,369.2213 250.174,370.5443 250.725,371.6903 L250.725,369.5743 L253.017,369.5743 L253.017,381.5633 Z" id="Fill-37" fill="#FFFFFF" mask="url(#mask-2)"></path>
                <polygon id="Fill-38" fill="#FFFFFF" mask="url(#mask-2)" points="255.482 381.564 257.774 381.564 257.774 365.254 255.482 365.254"></polygon>
                <polygon id="Fill-39" fill="#FFFFFF" mask="url(#mask-2)" points="266.234 381.564 268.835 381.564 268.835 365.254 266.234 365.254"></polygon>
                <path d="M271.3687,369.5742 L273.5287,369.5742 L273.5287,371.4262 C274.1007,370.1912 275.4457,369.1992 277.5837,369.2212 C281.4187,369.2652 282.4317,372.0422 282.4317,374.5332 L282.4317,381.5632 L280.1187,381.5632 L280.1187,375.0622 C280.1187,372.9022 279.2807,371.3592 276.9447,371.3822 C274.6967,371.4032 273.6607,372.8142 273.6607,374.8862 L273.6607,381.5632 L271.3687,381.5632 L271.3687,369.5742 Z" id="Fill-40" fill="#FFFFFF" mask="url(#mask-2)"></path>
                <path d="M284.8311,369.5742 L286.9911,369.5742 L286.9911,371.4262 C287.5641,370.1912 288.9091,369.1992 291.0461,369.2212 C294.8811,369.2652 295.8951,372.0422 295.8951,374.5332 L295.8951,381.5632 L293.5811,381.5632 L293.5811,375.0622 C293.5811,372.9022 292.7441,371.3592 290.4071,371.3822 C288.1591,371.4032 287.1231,372.8142 287.1231,374.8862 L287.1231,381.5632 L284.8311,381.5632 L284.8311,369.5742 Z" id="Fill-41" fill="#FFFFFF" mask="url(#mask-2)"></path>
                <path d="M299.9028,375.5908 C299.9028,377.9708 301.7098,379.7568 304.0018,379.7568 C306.2938,379.7568 308.1018,377.9708 308.1018,375.5698 C308.1018,373.1658 306.2938,371.3818 304.0018,371.3818 C301.7098,371.3818 299.9028,373.1658 299.9028,375.5698 L299.9028,375.5908 Z M297.6108,375.5468 C297.6108,372.3508 299.9688,369.2218 304.0018,369.2218 C308.0358,369.2218 310.3938,372.3508 310.3938,375.5698 C310.3938,378.7868 308.0358,381.8948 304.0018,381.8948 C299.9688,381.8948 297.6108,378.7868 297.6108,375.5698 L297.6108,375.5468 Z" id="Fill-42" fill="#FFFFFF" mask="url(#mask-2)"></path>
                <polygon id="Fill-43" fill="#FFFFFF" mask="url(#mask-2)" points="317.1787 381.5635 314.8867 381.5635 310.3027 369.5745 312.7047 369.5745 316.0327 378.6995 319.3607 369.5745 321.7627 369.5745"></polygon>
                <path d="M323.9419,375.6133 C323.9639,377.3983 325.2199,379.7793 328.1299,379.7793 C329.9589,379.7793 331.2589,378.7643 331.8549,377.3983 C332.1189,376.8463 332.2509,376.2303 332.2729,375.6133 C332.2949,374.9963 332.1849,374.3793 331.9209,373.8283 C331.3479,372.4393 330.0029,371.3593 328.0859,371.3593 C325.5729,371.3593 323.9419,373.3423 323.9419,375.5913 L323.9419,375.6133 Z M334.5429,381.5633 L332.2509,381.5633 L332.2509,379.4703 C331.4139,381.0793 329.6949,381.9163 327.7989,381.9163 C323.9419,381.9163 321.6499,378.9193 321.6499,375.5693 C321.6499,371.9103 324.3169,369.2213 327.7989,369.2213 C330.1789,369.2213 331.6999,370.5443 332.2509,371.6903 L332.2509,369.5743 L334.5429,369.5743 L334.5429,381.5633 Z" id="Fill-44" fill="#FFFFFF" mask="url(#mask-2)"></path>
                <polygon id="Fill-45" fill="#FFFFFF" mask="url(#mask-2)" points="337.8682 371.3594 335.7082 371.3594 335.7082 369.5744 337.8682 369.5744 337.8682 365.2544 340.1602 365.2544 340.1602 369.5744 342.4742 369.5744 342.4742 371.3594 340.1602 371.3594 340.1602 381.5634 337.8682 381.5634"></polygon>
                <path d="M343.641,381.563 L345.933,381.563 L345.933,369.574 L343.641,369.574 L343.641,381.563 Z M343.641,367.679 L345.933,367.679 L345.933,365.254 L343.641,365.254 L343.641,367.679 Z" id="Fill-46" fill="#FFFFFF" mask="url(#mask-2)"></path>
                <path d="M349.9868,375.5908 C349.9868,377.9708 351.7938,379.7568 354.0858,379.7568 C356.3778,379.7568 358.1858,377.9708 358.1858,375.5698 C358.1858,373.1658 356.3778,371.3818 354.0858,371.3818 C351.7938,371.3818 349.9868,373.1658 349.9868,375.5698 L349.9868,375.5908 Z M347.6948,375.5468 C347.6948,372.3508 350.0518,369.2218 354.0858,369.2218 C358.1198,369.2218 360.4778,372.3508 360.4778,375.5698 C360.4778,378.7868 358.1198,381.8948 354.0858,381.8948 C350.0518,381.8948 347.6948,378.7868 347.6948,375.5698 L347.6948,375.5468 Z" id="Fill-47" fill="#FFFFFF" mask="url(#mask-2)"></path>
                <path d="M362.2593,369.5742 L364.4193,369.5742 L364.4193,371.4262 C364.9923,370.1912 366.3373,369.1992 368.4743,369.2212 C372.3093,369.2652 373.3233,372.0422 373.3233,374.5332 L373.3233,381.5632 L371.0093,381.5632 L371.0093,375.0622 C371.0093,372.9022 370.1713,371.3592 367.8353,371.3822 C365.5873,371.4032 364.5513,372.8142 364.5513,374.8862 L364.5513,381.5632 L362.2593,381.5632 L362.2593,369.5742 Z" id="Fill-48" fill="#FFFFFF" mask="url(#mask-2)"></path>
                <path d="M387.0928,366.8857 C386.0348,366.8857 385.3298,367.7447 385.3298,368.6927 C385.3298,369.8167 386.1898,370.5877 386.8278,371.2717 C388.1728,370.5227 388.9668,369.9707 388.9668,368.7377 C388.9668,367.7667 388.2388,366.8857 387.1148,366.8857 L387.0928,366.8857 Z M386.3658,373.8947 C384.5578,374.7977 383.8308,375.8337 383.8308,377.0237 C383.8308,378.4787 384.9988,379.6677 386.6308,379.6677 C388.2608,379.6677 389.0328,378.7647 389.7598,377.3547 L386.3658,373.8947 Z M395.3358,371.6677 L392.5368,376.9797 L395.7988,380.3077 L394.2118,381.8507 L391.3028,378.8527 C390.4208,380.5497 389.1648,381.8717 386.5418,381.8717 C383.3238,381.8717 381.3188,379.6907 381.3188,377.2227 C381.3188,374.5987 383.4778,373.2327 384.9328,372.4617 C383.8308,371.2937 383.1038,370.2357 383.0598,368.8247 C383.0598,366.6867 384.8228,364.9457 387.0928,364.9457 C389.3848,364.9457 391.0818,366.6867 391.0818,368.7587 C391.0818,370.9407 389.4068,371.9097 388.1728,372.5717 L390.9938,375.4367 L392.9108,371.6677 L395.3358,371.6677 Z" id="Fill-49" fill="#FFFFFF" mask="url(#mask-2)"></path>
                <path d="M408.9072,368.2734 L406.1522,375.6134 L411.7062,375.6134 L408.9072,368.2734 Z M403.9482,381.5634 L401.1272,381.5634 L407.8272,365.2534 L410.1852,365.2534 L416.7762,381.5634 L413.9542,381.5634 L412.4112,377.7064 L405.4472,377.7064 L403.9482,381.5634 Z" id="Fill-50" fill="#FFFFFF" mask="url(#mask-2)"></path>
                <path d="M419.5044,375.5693 C419.5044,377.8173 421.1134,379.7793 423.6484,379.7793 C424.8604,379.7793 425.8744,379.3153 426.6004,378.5663 C427.3064,377.8393 427.7474,376.8023 427.7684,375.6343 C427.7684,374.6873 427.4614,373.6073 426.7994,372.7923 C426.1384,371.9543 425.1024,371.3823 423.6484,371.3823 C421.3784,371.3823 419.5044,373.0783 419.5044,375.5473 L419.5044,375.5693 Z M430.0174,380.1743 C430.0174,382.2683 429.4884,383.6133 428.6064,384.6283 C427.5044,385.9053 425.6314,386.8093 423.5594,386.8093 C420.1654,386.8093 418.1814,384.8263 417.6084,382.8193 L420.2544,382.8193 C420.5184,383.3483 420.9814,383.8343 421.5754,384.2083 C422.3034,384.6933 423.1194,384.8473 423.6484,384.8473 C425.6534,384.8473 427.7244,383.3713 427.7244,380.6823 L427.7244,379.4473 C427.0204,380.7923 425.5654,381.9163 423.4054,381.9163 C419.8134,381.9163 417.2124,379.1833 417.2124,375.6133 C417.2124,371.8663 419.9234,369.2213 423.4054,369.2213 C425.4114,369.2213 427.0644,370.2793 427.7244,371.6023 L427.7244,369.5743 L430.0174,369.5743 L430.0174,380.1743 Z" id="Fill-51" fill="#FFFFFF" mask="url(#mask-2)"></path>
                <path d="M432.4385,369.5742 L434.5985,369.5742 L434.5985,371.3382 C435.2815,369.9272 436.5385,369.2432 438.1685,369.2212 L438.1685,371.5132 L438.0145,371.5132 C435.8545,371.5132 434.7305,372.7042 434.7305,375.0842 L434.7305,381.5632 L432.4385,381.5632 L432.4385,369.5742 Z" id="Fill-52" fill="#FFFFFF" mask="url(#mask-2)"></path>
                <path d="M439.423,381.563 L441.715,381.563 L441.715,369.574 L439.423,369.574 L439.423,381.563 Z M439.423,367.679 L441.715,367.679 L441.715,365.254 L439.423,365.254 L439.423,367.679 Z" id="Fill-53" fill="#FFFFFF" mask="url(#mask-2)"></path>
                <path d="M455.9736,377.3545 C455.2456,379.9555 452.8876,381.9165 449.8906,381.9165 C445.9676,381.9165 443.4766,378.8975 443.4766,375.5695 C443.4766,372.0205 446.1886,369.2215 449.7806,369.2215 C452.6456,369.2215 455.2246,370.9845 455.9736,373.8725 L453.6156,373.8725 C452.9976,372.2625 451.4986,371.3595 449.8696,371.3595 C448.6566,371.3375 447.7746,371.7345 446.9366,372.5275 C446.2326,373.2325 445.7686,374.3565 445.7686,375.5695 C445.7686,378.0385 447.5766,379.7795 449.8696,379.7795 C451.8736,379.7565 453.1296,378.5435 453.6156,377.3545 L455.9736,377.3545 Z" id="Fill-54" fill="#FFFFFF" mask="url(#mask-2)"></path>
                <path d="M468.6875,381.5635 L466.5285,381.5635 L466.5285,379.7115 C465.9555,380.9475 464.6105,381.9385 462.4715,381.9165 C458.6165,381.8945 457.6235,379.0945 457.6235,376.6045 L457.6235,369.5745 L459.9155,369.5745 L459.9155,376.0765 C459.9155,378.2355 460.7525,379.7795 463.1125,379.7795 C465.3605,379.7565 466.3955,378.3245 466.3955,376.2745 L466.3955,369.5745 L468.6875,369.5745 L468.6875,381.5635 Z" id="Fill-55" fill="#FFFFFF" mask="url(#mask-2)"></path>
                <polygon id="Fill-56" fill="#FFFFFF" mask="url(#mask-2)" points="471.13 381.564 473.422 381.564 473.422 365.254 471.13 365.254"></polygon>
                <polygon id="Fill-57" fill="#FFFFFF" mask="url(#mask-2)" points="476.7266 371.3594 474.5676 371.3594 474.5676 369.5744 476.7266 369.5744 476.7266 365.2544 479.0186 365.2544 479.0186 369.5744 481.3326 369.5744 481.3326 371.3594 479.0186 371.3594 479.0186 381.5634 476.7266 381.5634"></polygon>
                <path d="M493.541,381.5635 L491.382,381.5635 L491.382,379.7115 C490.809,380.9475 489.465,381.9385 487.326,381.9165 C483.47,381.8945 482.478,379.0945 482.478,376.6045 L482.478,369.5745 L484.77,369.5745 L484.77,376.0765 C484.77,378.2355 485.607,379.7795 487.966,379.7795 C490.214,379.7565 491.249,378.3245 491.249,376.2745 L491.249,369.5745 L493.541,369.5745 L493.541,381.5635 Z" id="Fill-58" fill="#FFFFFF" mask="url(#mask-2)"></path>
                <path d="M495.9844,369.5742 L498.1444,369.5742 L498.1444,371.3382 C498.8274,369.9272 500.0844,369.2432 501.7144,369.2212 L501.7144,371.5132 L501.5604,371.5132 C499.4004,371.5132 498.2764,372.7042 498.2764,375.0842 L498.2764,381.5632 L495.9844,381.5632 L495.9844,369.5742 Z" id="Fill-59" fill="#FFFFFF" mask="url(#mask-2)"></path>
                <path d="M503.7187,375.6133 C503.7407,377.3983 504.9967,379.7793 507.9057,379.7793 C509.7357,379.7793 511.0357,378.7643 511.6307,377.3983 C511.8957,376.8463 512.0277,376.2303 512.0497,375.6133 C512.0727,374.9963 511.9617,374.3793 511.6977,373.8283 C511.1237,372.4393 509.7807,371.3593 507.8627,371.3593 C505.3497,371.3593 503.7187,373.3423 503.7187,375.5913 L503.7187,375.6133 Z M514.3207,381.5633 L512.0277,381.5633 L512.0277,379.4703 C511.1897,381.0793 509.4707,381.9163 507.5757,381.9163 C503.7187,381.9163 501.4267,378.9193 501.4267,375.5693 C501.4267,371.9103 504.0927,369.2213 507.5757,369.2213 C509.9557,369.2213 511.4777,370.5443 512.0277,371.6903 L512.0277,369.5743 L514.3207,369.5743 L514.3207,381.5633 Z" id="Fill-60" fill="#FFFFFF" mask="url(#mask-2)"></path>
                <polygon id="Fill-61" fill="#FFFFFF" mask="url(#mask-2)" points="516.785 381.564 519.077 381.564 519.077 365.254 516.785 365.254"></polygon>
                <polygon id="Fill-62" fill="#FFFFFF" mask="url(#mask-2)" points="527.539 381.564 530.139 381.564 530.139 365.254 527.539 365.254"></polygon>
                <path d="M532.6709,369.5742 L534.8309,369.5742 L534.8309,371.4262 C535.4039,370.1912 536.7489,369.1992 538.8859,369.2212 C542.7219,369.2652 543.7349,372.0422 543.7349,374.5332 L543.7349,381.5632 L541.4209,381.5632 L541.4209,375.0622 C541.4209,372.9022 540.5829,371.3592 538.2469,371.3822 C535.9989,371.4032 534.9629,372.8142 534.9629,374.8862 L534.9629,381.5632 L532.6709,381.5632 L532.6709,369.5742 Z" id="Fill-63" fill="#FFFFFF" mask="url(#mask-2)"></path>
                <polygon id="Fill-64" fill="#FFFFFF" mask="url(#mask-2)" points="546.9932 371.3594 544.8342 371.3594 544.8342 369.5744 546.9932 369.5744 546.9932 365.2544 549.2852 365.2544 549.2852 369.5744 551.5992 369.5744 551.5992 371.3594 549.2852 371.3594 549.2852 381.5634 546.9932 381.5634"></polygon>
                <path d="M561.627,374.5107 C561.516,372.9237 559.93,371.1387 557.659,371.1827 C555.322,371.1827 553.802,372.8797 553.692,374.5107 L561.627,374.5107 Z M553.648,376.2957 C553.758,378.7207 555.874,379.9547 557.682,379.9547 C559.291,379.9547 560.481,379.1837 561.142,377.9267 L563.523,377.9267 C562.949,379.2497 562.111,380.2407 561.098,380.9037 C560.083,381.5857 558.894,381.9157 557.682,381.9157 C553.758,381.9157 551.334,378.7647 551.334,375.5907 C551.334,372.1537 554.023,369.2217 557.659,369.2217 C559.379,369.2217 560.942,369.8617 562.089,370.9847 C563.499,372.4177 564.096,374.2897 563.897,376.2957 L553.648,376.2957 Z" id="Fill-65" fill="#FFFFFF" mask="url(#mask-2)"></path>
                <polygon id="Fill-66" fill="#FFFFFF" mask="url(#mask-2)" points="565.59 381.564 567.882 381.564 567.882 365.254 565.59 365.254"></polygon>
                <polygon id="Fill-67" fill="#FFFFFF" mask="url(#mask-2)" points="570.328 381.564 572.62 381.564 572.62 365.254 570.328 365.254"></polygon>
                <path d="M575.064,381.563 L577.356,381.563 L577.356,369.574 L575.064,369.574 L575.064,381.563 Z M575.064,367.679 L577.356,367.679 L577.356,365.254 L575.064,365.254 L575.064,367.679 Z" id="Fill-68" fill="#FFFFFF" mask="url(#mask-2)"></path>
                <path d="M581.4102,375.5693 C581.4102,377.8173 583.0192,379.7793 585.5552,379.7793 C586.7662,379.7793 587.7802,379.3153 588.5072,378.5663 C589.2132,377.8393 589.6532,376.8023 589.6752,375.6343 C589.6752,374.6873 589.3662,373.6073 588.7062,372.7923 C588.0452,371.9543 587.0092,371.3823 585.5552,371.3823 C583.2842,371.3823 581.4102,373.0783 581.4102,375.5473 L581.4102,375.5693 Z M591.9232,380.1743 C591.9232,382.2683 591.3942,383.6133 590.5132,384.6283 C589.4102,385.9053 587.5382,386.8093 585.4662,386.8093 C582.0712,386.8093 580.0882,384.8263 579.5142,382.8193 L582.1602,382.8193 C582.4252,383.3483 582.8872,383.8343 583.4812,384.2083 C584.2102,384.6933 585.0252,384.8473 585.5552,384.8473 C587.5592,384.8473 589.6312,383.3713 589.6312,380.6823 L589.6312,379.4473 C588.9272,380.7923 587.4722,381.9163 585.3112,381.9163 C581.7192,381.9163 579.1182,379.1833 579.1182,375.6133 C579.1182,371.8663 581.8302,369.2213 585.3112,369.2213 C587.3172,369.2213 588.9712,370.2793 589.6312,371.6023 L589.6312,369.5743 L591.9232,369.5743 L591.9232,380.1743 Z" id="Fill-69" fill="#FFFFFF" mask="url(#mask-2)"></path>
                <path d="M603.7998,374.5107 C603.6888,372.9237 602.1028,371.1387 599.8328,371.1827 C597.4958,371.1827 595.9758,372.8797 595.8648,374.5107 L603.7998,374.5107 Z M595.8208,376.2957 C595.9318,378.7207 598.0468,379.9547 599.8548,379.9547 C601.4638,379.9547 602.6538,379.1837 603.3148,377.9267 L605.6958,377.9267 C605.1218,379.2497 604.2848,380.2407 603.2708,380.9037 C602.2568,381.5857 601.0668,381.9157 599.8548,381.9157 C595.9318,381.9157 593.5068,378.7647 593.5068,375.5907 C593.5068,372.1537 596.1958,369.2217 599.8328,369.2217 C601.5518,369.2217 603.1158,369.8617 604.2618,370.9847 C605.6728,372.4177 606.2688,374.2897 606.0698,376.2957 L595.8208,376.2957 Z" id="Fill-70" fill="#FFFFFF" mask="url(#mask-2)"></path>
                <path d="M607.7627,369.5742 L609.9227,369.5742 L609.9227,371.4262 C610.4957,370.1912 611.8407,369.1992 613.9787,369.2212 C617.8137,369.2652 618.8277,372.0422 618.8277,374.5332 L618.8277,381.5632 L616.5127,381.5632 L616.5127,375.0622 C616.5127,372.9022 615.6747,371.3592 613.3387,371.3822 C611.0907,371.4032 610.0547,372.8142 610.0547,374.8862 L610.0547,381.5632 L607.7627,381.5632 L607.7627,369.5742 Z" id="Fill-71" fill="#FFFFFF" mask="url(#mask-2)"></path>
                <path d="M633.0391,377.3545 C632.3121,379.9555 629.9531,381.9165 626.9571,381.9165 C623.0331,381.9165 620.5431,378.8975 620.5431,375.5695 C620.5431,372.0205 623.2541,369.2215 626.8461,369.2215 C629.7111,369.2215 632.2901,370.9845 633.0391,373.8725 L630.6821,373.8725 C630.0641,372.2625 628.5641,371.3595 626.9351,371.3595 C625.7221,371.3375 624.8411,371.7345 624.0031,372.5275 C623.2981,373.2325 622.8351,374.3565 622.8351,375.5695 C622.8351,378.0385 624.6421,379.7795 626.9351,379.7795 C628.9401,379.7565 630.1961,378.5435 630.6821,377.3545 L633.0391,377.3545 Z" id="Fill-72" fill="#FFFFFF" mask="url(#mask-2)"></path>
                <path d="M644.166,374.5107 C644.055,372.9237 642.469,371.1387 640.199,371.1827 C637.862,371.1827 636.342,372.8797 636.231,374.5107 L644.166,374.5107 Z M636.187,376.2957 C636.298,378.7207 638.413,379.9547 640.221,379.9547 C641.83,379.9547 643.02,379.1837 643.681,377.9267 L646.062,377.9267 C645.488,379.2497 644.651,380.2407 643.637,380.9037 C642.623,381.5857 641.433,381.9157 640.221,381.9157 C636.298,381.9157 633.873,378.7647 633.873,375.5907 C633.873,372.1537 636.562,369.2217 640.199,369.2217 C641.918,369.2217 643.482,369.8617 644.628,370.9847 C646.039,372.4177 646.635,374.2897 646.436,376.2957 L636.187,376.2957 Z" id="Fill-73" fill="#FFFFFF" mask="url(#mask-2)"></path>
            </g>
            <g id="diAgrii-Logo-Coloured" transform="translate(-195.000000, 73.000000)">
                <mask id="mask-4" fill="white">
                    <use xlink:href="#path-3"></use>
                </mask>
                <g id="Clip-6"></g>
            </g>
        </g>
    </g>
</svg>